<?xml version="1.0" encoding="UTF-8"?>
<!DOCTYPE svg PUBLIC "-//W3C//DTD SVG 1.1//EN" "http://www.w3.org/Graphics/SVG/1.1/DTD/svg11.dtd">
<!-- Creator: CorelDRAW -->
<svg xmlns="http://www.w3.org/2000/svg" xml:space="preserve" width="3005px" height="659px" version="1.1" style="shape-rendering:geometricPrecision; text-rendering:geometricPrecision; image-rendering:optimizeQuality; fill-rule:evenodd; clip-rule:evenodd"
viewBox="0 0 12584.96 2758.51"
 xmlns:xlink="http://www.w3.org/1999/xlink"
 xmlns:xodm="http://www.corel.com/coreldraw/odm/2003">
 <defs>
  <style type="text/css">
   <![CDATA[
    .fil1 {fill:#00CCFF}
    .fil0 {fill:#FDFEFE}
   ]]>
  </style>
 </defs>
 <g id="Слой_x0020_1">
  <metadata id="CorelCorpID_0Corel-Layer"/>
  <path class="fil0" d="M8791.41 999.96l86.22 0 -4.72 759.06 -85.55 0 4.05 -759.06zm-657.37 -161.41c-0.02,-119.1 -24.3,-138.5 78.08,-143.97 27.15,48.32 17.86,71.6 17.48,231.22l-0.16 741.23 402.82 9 -1.66 82.99 -491.49 0.14 -5.07 -920.61zm1194.95 933.5c-309.35,0 -238.04,-381.58 -238.05,-776.44 -0.01,-222.34 -38.08,-336.66 90.75,-291.93l3.82 341.66c79.44,-41.58 164.82,-100.69 291.35,-40.66 83.94,39.82 121.17,127.3 121.11,252.69 -0.11,274.56 46.8,514.68 -268.98,514.68zm-5242.41 -1077.47c311.7,0 598.27,-55.09 598.26,318.48 0,739.59 54.2,745.83 -593.27,746.08l-4.76 -833.34 -0.23 -231.22zm1327.11 696.14c-67.43,408.32 249.64,295.51 286.4,251.44 69.14,-82.91 -16.85,-149.23 85.42,-128.06 127.08,26.3 -48.49,224.19 -109.44,244.25 -131.92,43.42 -263.65,5.19 -316.67,-73.72 -64.48,-95.95 -42.42,-250.35 -42.97,-375.1 -2.1,-469.82 379.89,-320.96 437.57,-264.11 87.11,85.87 69.91,203.04 69.97,342.44l-410.28 2.86zm5573.15 -325.7c65.17,-61.68 102.69,-82.3 227.54,-82.63l5.68 104.91c-211.49,0.14 -225.11,26.07 -223.71,239.72 0.9,136.47 6.76,291.86 -2.13,429.47l-88.26 -2.13 2.68 -749.7c67.96,6.99 14.78,8.32 78.2,60.36zm-1111.47 6.87c48,-72.26 97.44,-92.12 217,-87.78l2.29 100.41c-352.04,20.45 -173.78,150.84 -228,674.55l-86.02 0.03 4.6 -759.14c59.38,19.39 10.29,1.33 47.37,33.52 3.8,3.31 17.26,16.18 20.17,18.83 2.48,2.24 9.3,13.04 11.13,9.75 1.86,-3.34 7.19,7.16 11.46,9.83zm-4909.15 -7.59c54.36,-68.94 111.17,-81.63 224.28,-81.81l4.63 104.64c-365.2,0.28 -163.67,179.84 -228.92,672.2l-84.8 -1.97 3.56 -755.74c43.93,13.77 8.55,-0.64 45.17,29.93l36.08 32.75zm5263.13 147.82c-22.45,-236.93 307.15,-304.28 435.45,-156.25 88.15,101.7 69.89,535.71 54.49,701.8 -35.58,-10.92 -71.49,-53.16 -72.28,-56.41 -1.35,-5.62 -5.84,-6.37 -9.19,-9.06 -294.23,270.59 -591.59,-182.54 -310.89,-343.57 83.86,-48.11 201,-25.33 299.35,-33.08 21.83,-133.16 2.94,-225 -116.56,-243.2 -158.44,-24.12 -161.8,36.17 -204.03,153.95l-76.34 -14.18zm-3448.22 -145.47c137.62,-158.22 273.78,-68.9 381.8,31.01 107.33,-163.24 330.71,-151.74 401.02,20.88 37.11,91.1 33.83,521.05 18.93,640.56l-81.21 -0.69c-35.51,-371.05 85.18,-688.21 -162.72,-689.2 -256.84,-1.03 -109.91,321.96 -156.79,690.05l-81.26 -1.46c-32.84,-357.77 82.66,-687.95 -163.31,-688.59 -256.48,-0.66 -114.55,365.62 -156.64,690.07l-84.76 -1.71 3.52 -756.13c45,13.71 8.57,-1.98 45.5,30.1 3.47,3.01 15.09,14.77 17.62,17.18l18.3 17.93zm-760.28 148.26c-27.76,-250.35 329.23,-294.31 438.96,-159.89 82.04,100.5 62.73,532.8 50.63,699.51 -65.28,-7.33 -17.96,-8.51 -78.33,-62.53 -239.57,151.83 -406.38,55.96 -422.94,-120.78 -23.63,-252.33 200.14,-252.66 413.19,-252.66 0,-150.03 -3.12,-250.38 -164.97,-249.49 -64.78,0.36 -106.97,18.92 -133.33,71.73 -48.59,97.34 32.86,99.87 -103.21,74.11zm5358.66 836.47c32.87,-73.69 63.9,-174.74 94.74,-254.77 86.65,-224.89 -134.09,-420.12 -202.67,-795.89l83.89 -1.65 204.68 574.07c41.31,-111.52 73.31,-213.71 112.83,-327.64 94.78,-273.23 52.38,-245.75 174.43,-243.31l-380.01 1054.57 -87.89 -5.38zm-2599.95 -1356.81l78.32 -0.22 28.6 8.69 -3.21 110.74 -98.81 3.11 -4.9 -65.6 0 -56.72zm-4938.67 -676.22l-490.74 2739.48c1459.66,1.05 2916.5,0.57 4373.34,0.57l4356.77 -12.36c3.85,-1.06 9.93,-3.02 14.55,-5.33l490.15 -2739.17 -8614 -1.51c-17.17,-0.04 -53.49,-0.27 -69.24,1.83l-46.31 11.21c-3.84,1.05 -9.91,2.99 -14.52,5.28z"/>
  <path class="fil0" d="M1323.46 423.81c-0.09,-176.4 -29.21,-215.21 154.05,-145.27 102.98,39.3 142.36,77.54 208.42,140.62 123.82,118.26 181.37,269.39 213.08,485.75 88.95,-43.13 162.02,-121.62 346.12,-187.16 144.59,-51.47 305.83,-86.94 477.76,-74.92l3.85 249.81c37.78,9.42 62.34,13.68 94.72,31.94 182.74,103.06 176.94,31.4 176.93,175.73l-0.07 680.59c-0.07,817.22 52.29,726.79 -213.27,725.37l-800.74 -1.03c-69.71,-8.19 -59.34,-30.55 -122.77,-27.1 -57.07,3.1 -48.84,25.76 -140.42,28.78 -50.28,1.66 -106.78,-0.73 -157.85,-0.77 -104.71,-0.08 -209.43,-0.01 -314.13,0 -408.84,0.03 -508.78,52.83 -508.78,-114.46 0,-122.5 -12.15,-109.98 20.15,-159.15 65.56,28.47 40.32,11.47 42.53,205.73l934.73 5.88c75.29,0.01 43.67,-39.17 138.62,-35.25 84.54,3.49 52.29,35.27 123.15,35.26 192.86,0.12 787.69,11.26 936.46,-6.2l0.44 -1355.1c0,-59.98 -18.64,-47.96 -74.79,-45.34 -28.98,342.82 14.52,917.3 -1.45,1252.16 -4.36,91.48 -1.91,84.43 -92.82,84.41l-1797.46 0.11c-120.91,0.01 -89.22,-4.87 -89.13,-279.18 0.07,-266.73 14.13,-861.47 -4,-1059l-64.58 -1.07c-22.94,78 -10.01,653.27 -9.64,815.76 0.16,73.77 28.52,212.43 -42.06,240.29 -28.18,-41.58 -20.19,-24.28 -20.19,-83.23l-0.1 -907.46c-0.02,-155.58 49.38,-95.94 147.64,-153.37 87.56,-51.17 112.75,-45.74 212.92,-85.27l5.66 -481.47c90.2,-0.15 136.59,24.1 217.02,43.61zm936.48 -422.77l-215.23 1.18 -1509.7 2.23c-42.11,7.86 -20.89,2.06 -44.66,13.9l-490.35 2739.38 3247.91 0.37 491.15 -2756.82 -1479.12 -0.24z"/>
  <path class="fil1" d="M2791.92 2308.87l-812.83 -0.27c44.41,-48 90.75,-56.2 173.15,-78.21 155.1,-41.42 303.27,-45.09 462.54,-15.59 199.02,36.86 163.77,31 177.14,94.07zm-1038.66 -5.35l-806.27 5.57c11.47,-56.64 -34.35,-53.08 163.24,-92.01 184.39,-36.33 507.43,-30.47 643.03,86.44zm-651.54 -1356.95l5.54 816.88c92.67,62.66 438.35,97.12 652.96,455.6 -492.06,-119.74 -278.53,-116.32 -813.22,-31.73l1 -1211.13 153.72 -29.62zm66.78 -487.16c63.3,3.32 119.35,14.13 154.84,65.02l1.69 1112.91c135.44,76.84 234.28,66.19 335.3,186.04 70.71,83.9 123.65,200.82 156.55,337.79 -349.22,-329.49 -154.95,-242.04 -648.3,-441.11l-0.08 -1260.65zm228.04 -136.68c262.17,86.55 414.16,285.43 437,608.37 21.95,310.53 7.02,721.11 2.14,1039.15 -66.49,-108.7 -92.91,-151.06 -176.57,-233.14 -108.09,-106.05 -129.51,-78.64 -269.31,-148.17l6.74 -1266.21zm508.22 1919.42c-19.97,-363.39 -0.84,-773.74 -3.01,-1143.12 -0.69,-118.2 22.28,-135.42 100.65,-187.19 174.1,-115.03 439.78,-213.61 656.74,-198.71 -0.12,103.02 -27.09,295.14 18.89,365.38 71.52,-27.88 22.6,-1.82 44.69,-53.14 33.02,-76.67 -42.93,-40.06 40.65,-57.69 24.73,23.31 30.31,-6.49 29.68,131.68l-1.13 1087.83c-96.1,-14.7 -172.8,-42.43 -276.49,-51.58 -104.29,-9.21 -187.97,6.89 -282.59,1.75 45.47,-6.71 135.32,-50.09 216.14,-63.72 84.76,-14.29 189.42,-16.71 269.88,-28.22 16.67,-113.55 4.55,-500.47 6.95,-666.61 2.89,-199.35 -5.05,-142.68 -45.68,-155.58 -59.97,90.88 0.1,599.76 -27.56,756.98 -457.98,45.27 -434.99,100.66 -747.81,261.94zm-581.3 -1818.34c-80.43,-19.51 -126.82,-43.76 -217.02,-43.61l-5.66 481.47c-100.17,39.53 -125.36,34.1 -212.92,85.27 -98.26,57.43 -147.66,-2.21 -147.64,153.37l0.1 907.46c0,58.95 -7.99,41.65 20.19,83.23 70.58,-27.86 42.22,-166.52 42.06,-240.29 -0.37,-162.49 -13.3,-737.76 9.64,-815.76l64.58 1.07c18.13,197.53 4.07,792.27 4,1059 -0.09,274.31 -31.78,279.19 89.13,279.18l1797.46 -0.11c90.91,0.02 88.46,7.07 92.82,-84.41 15.97,-334.86 -27.53,-909.34 1.45,-1252.16 56.15,-2.62 74.79,-14.64 74.79,45.34l-0.44 1355.1c-148.77,17.46 -743.6,6.32 -936.46,6.2 -70.86,0.01 -38.61,-31.77 -123.15,-35.26 -94.95,-3.92 -63.33,35.26 -138.62,35.25l-934.73 -5.88c-2.21,-194.26 23.03,-177.26 -42.53,-205.73 -32.3,49.17 -20.15,36.65 -20.15,159.15 0,167.29 99.94,114.49 508.78,114.46 104.7,-0.01 209.42,-0.08 314.13,0 51.07,0.04 107.57,2.43 157.85,0.77 91.58,-3.02 83.35,-25.68 140.42,-28.78 63.43,-3.45 53.06,18.91 122.77,27.1l800.74 1.03c265.56,1.42 213.2,91.85 213.27,-725.37l0.07 -680.59c0.01,-144.33 5.81,-72.67 -176.93,-175.73 -32.38,-18.26 -56.94,-22.52 -94.72,-31.94l-3.85 -249.81c-171.93,-12.02 -333.17,23.45 -477.76,74.92 -184.1,65.54 -257.17,144.03 -346.12,187.16 -31.71,-216.36 -89.26,-367.49 -213.08,-485.75 -66.06,-63.08 -105.44,-101.32 -208.42,-140.62 -183.26,-69.94 -154.14,-31.13 -154.05,145.27z"/>
  <path class="fil0" d="M1904.76 2242.15c312.82,-161.28 289.83,-216.67 747.81,-261.94 27.66,-157.22 -32.41,-666.1 27.56,-756.98 40.63,12.9 48.57,-43.77 45.68,155.58 -2.4,166.14 9.72,553.06 -6.95,666.61 -80.46,11.51 -185.12,13.93 -269.88,28.22 -80.82,13.63 -170.67,57.01 -216.14,63.72 94.62,5.14 178.3,-10.96 282.59,-1.75 103.69,9.15 180.39,36.88 276.49,51.58l1.13 -1087.83c0.63,-138.17 -4.95,-108.37 -29.68,-131.68 -83.58,17.63 -7.63,-18.98 -40.65,57.69 -22.09,51.32 26.83,25.26 -44.69,53.14 -45.98,-70.24 -19.01,-262.36 -18.89,-365.38 -216.96,-14.9 -482.64,83.68 -656.74,198.71 -78.37,51.77 -101.34,68.99 -100.65,187.19 2.17,369.38 -16.96,779.73 3.01,1143.12z"/>
  <path class="fil0" d="M1389.8 1588.94c139.8,69.53 161.22,42.12 269.31,148.17 83.66,82.08 110.08,124.44 176.57,233.14 4.88,-318.04 19.81,-728.62 -2.14,-1039.15 -22.84,-322.94 -174.83,-521.82 -437,-608.37l-6.74 1266.21z"/>
  <path class="fil0" d="M4182.16 1665.53c469.43,14.33 407.25,-15.14 407.24,-652.47 0,-269.79 -161.68,-232.53 -407.17,-225.56l-0.07 878.03z"/>
  <path class="fil0" d="M948 976.19l-1 1211.13c534.69,-84.59 321.16,-88.01 813.22,31.73 -214.61,-358.48 -560.29,-392.94 -652.96,-455.6l-5.54 -816.88 -153.72 29.62z"/>
  <path class="fil0" d="M1168.58 1720.06c493.35,199.07 299.08,111.62 648.3,441.11 -32.9,-136.97 -85.84,-253.89 -156.55,-337.79 -101.02,-119.85 -199.86,-109.2 -335.3,-186.04l-1.69 -1112.91c-35.49,-50.89 -91.54,-61.7 -154.84,-65.02l0.08 1260.65z"/>
  <path class="fil1" d="M4182.23 787.5c245.49,-6.97 407.17,-44.23 407.17,225.56 0.01,637.33 62.19,666.8 -407.24,652.47l0.07 -878.03zm-95.42 138.3l4.76 833.34c647.47,-0.25 593.27,-6.49 593.27,-746.08 0.01,-373.57 -286.56,-318.48 -598.26,-318.48l0.23 231.22z"/>
  <path class="fil1" d="M6781.13 1066.65l-18.3 -17.93c-2.53,-2.41 -14.15,-14.17 -17.62,-17.18 -36.93,-32.08 -0.5,-16.39 -45.5,-30.1l-3.52 756.13 84.76 1.71c42.09,-324.45 -99.84,-690.73 156.64,-690.07 245.97,0.64 130.47,330.82 163.31,688.59l81.26 1.46c46.88,-368.09 -100.05,-691.08 156.79,-690.05 247.9,0.99 127.21,318.15 162.72,689.2l81.21 0.69c14.9,-119.51 18.18,-549.46 -18.93,-640.56 -70.31,-172.62 -293.69,-184.12 -401.02,-20.88 -108.02,-99.91 -244.18,-189.23 -381.8,-31.01z"/>
  <path class="fil1" d="M9277.59 1076.38c182.34,-53.01 230.17,57.11 229.77,215.42 -0.35,140.02 33.06,334.32 -80.24,380.3 -203.64,82.65 -246.52,-59.47 -245.58,-222.57 0.88,-151.2 -36.48,-334.62 96.05,-373.15zm51.4 695.67c315.78,0 268.87,-240.12 268.98,-514.68 0.06,-125.39 -37.17,-212.87 -121.11,-252.69 -126.53,-60.03 -211.91,-0.92 -291.35,40.66l-3.82 -341.66c-128.83,-44.73 -90.76,69.59 -90.75,291.93 0.01,394.86 -71.3,776.44 238.05,776.44z"/>
  <path class="fil1" d="M10632.25 1399.59c0,76.41 11.58,190.14 -29.68,240.67 -37.05,45.37 -147.77,63.46 -220.5,31.77 -67.5,-29.41 -228.86,-323.77 250.18,-272.44zm-402.9 -187.47l76.34 14.18c42.23,-117.78 45.59,-178.07 204.03,-153.95 119.5,18.2 138.39,110.04 116.56,243.2 -98.35,7.75 -215.49,-15.03 -299.35,33.08 -280.7,161.03 16.66,614.16 310.89,343.57 3.35,2.69 7.84,3.44 9.19,9.06 0.79,3.25 36.7,45.49 72.28,56.41 15.4,-166.09 33.66,-600.1 -54.49,-701.8 -128.3,-148.03 -457.9,-80.68 -435.45,156.25z"/>
  <path class="fil0" d="M9277.59 1076.38c-132.53,38.53 -95.17,221.95 -96.05,373.15 -0.94,163.1 41.94,305.22 245.58,222.57 113.3,-45.98 79.89,-240.28 80.24,-380.3 0.4,-158.31 -47.43,-268.43 -229.77,-215.42z"/>
  <path class="fil1" d="M5407.68 1307.59c-0.11,-145.66 -2.7,-244.4 168.08,-238.6 164.15,5.58 157.39,102.85 157.31,244.06l-69.35 1.11 -191.55 1.32 -64.49 -7.89zm6.01 83.13l410.28 -2.86c-0.06,-139.4 17.14,-256.57 -69.97,-342.44 -57.68,-56.85 -439.67,-205.71 -437.57,264.11 0.55,124.75 -21.51,279.15 42.97,375.1 53.02,78.91 184.75,117.14 316.67,73.72 60.95,-20.06 236.52,-217.95 109.44,-244.25 -102.27,-21.17 -16.28,45.15 -85.42,128.06 -36.76,44.07 -353.83,156.88 -286.4,-251.44z"/>
  <path class="fil1" d="M6422.36 1501.69c0,314.75 -424.46,200.58 -308.47,-38.36 44.98,-92.66 179.39,-70.79 308.47,-70.79l0 109.15zm-401.51 -286.78c136.07,25.76 54.62,23.23 103.21,-74.11 26.36,-52.81 68.55,-71.37 133.33,-71.73 161.85,-0.89 164.97,99.46 164.97,249.49 -213.05,0 -436.82,0.33 -413.19,252.66 16.56,176.74 183.37,272.61 422.94,120.78 60.37,54.02 13.05,55.2 78.33,62.53 12.1,-166.71 31.41,-599.01 -50.63,-699.51 -109.73,-134.42 -466.72,-90.46 -438.96,159.89z"/>
  <path class="fil1" d="M11379.51 2051.38l87.89 5.38 380.01 -1054.57c-122.05,-2.44 -79.65,-29.92 -174.43,243.31 -39.52,113.93 -71.52,216.12 -112.83,327.64l-204.68 -574.07 -83.89 1.65c68.58,375.77 289.32,571 202.67,795.89 -30.84,80.03 -61.87,181.08 -94.74,254.77z"/>
  <path class="fil1" d="M8134.04 838.55l5.07 920.61 491.49 -0.14 1.66 -82.99 -402.82 -9 0.16 -741.23c0.38,-159.62 9.67,-182.9 -17.48,-231.22 -102.38,5.47 -78.1,24.87 -78.08,143.97z"/>
  <path class="fil1" d="M4966.22 1064.3l-36.08 -32.75c-36.62,-30.57 -1.24,-16.16 -45.17,-29.93l-3.56 755.74 84.8 1.97c65.25,-492.36 -136.28,-671.92 228.92,-672.2l-4.63 -104.64c-113.11,0.18 -169.92,12.87 -224.28,81.81z"/>
  <path class="fil1" d="M9875.37 1071.89c-4.27,-2.67 -9.6,-13.17 -11.46,-9.83 -1.83,3.29 -8.65,-7.51 -11.13,-9.75 -2.91,-2.65 -16.37,-15.52 -20.17,-18.83 -37.08,-32.19 12.01,-14.13 -47.37,-33.52l-4.6 759.14 86.02 -0.03c54.22,-523.71 -124.04,-654.1 228,-674.55l-2.29 -100.41c-119.56,-4.34 -169,15.52 -217,87.78z"/>
  <path class="fil1" d="M10986.84 1065.02c-63.42,-52.04 -10.24,-53.37 -78.2,-60.36l-2.68 749.7 88.26 2.13c8.89,-137.61 3.03,-293 2.13,-429.47 -1.4,-213.65 12.22,-239.58 223.71,-239.72l-5.68 -104.91c-124.85,0.33 -162.37,20.95 -227.54,82.63z"/>
  <path class="fil0" d="M6422.36 1501.69l0 -109.15c-129.08,0 -263.49,-21.87 -308.47,70.79 -115.99,238.94 308.47,353.11 308.47,38.36z"/>
  <path class="fil0" d="M10632.25 1399.59c-479.04,-51.33 -317.68,243.03 -250.18,272.44 72.73,31.69 183.45,13.6 220.5,-31.77 41.26,-50.53 29.68,-164.26 29.68,-240.67z"/>
  <path class="fil0" d="M5407.68 1307.59l64.49 7.89 191.55 -1.32 69.35 -1.11c0.08,-141.21 6.84,-238.48 -157.31,-244.06 -170.78,-5.8 -168.19,92.94 -168.08,238.6z"/>
  <path class="fil0" d="M2791.92 2308.87c-13.37,-63.07 21.88,-57.21 -177.14,-94.07 -159.27,-29.5 -307.44,-25.83 -462.54,15.59 -82.4,22.01 -128.74,30.21 -173.15,78.21l812.83 0.27z"/>
  <path class="fil0" d="M1753.26 2303.52c-135.6,-116.91 -458.64,-122.77 -643.03,-86.44 -197.59,38.93 -151.77,35.37 -163.24,92.01l806.27 -5.57z"/>
  <polygon class="fil1" points="8787.36,1759.02 8872.91,1759.02 8877.63,999.96 8791.41,999.96 "/>
  <polygon class="fil1" points="8779.56,751.29 8784.46,816.89 8883.27,813.78 8886.48,703.04 8857.88,694.35 8779.56,694.57 "/>
 </g>
</svg>
