<?xml version="1.0" encoding="UTF-8"?>
<!DOCTYPE svg PUBLIC "-//W3C//DTD SVG 1.1//EN" "http://www.w3.org/Graphics/SVG/1.1/DTD/svg11.dtd">
<!-- Creator: CorelDRAW -->
<svg xmlns="http://www.w3.org/2000/svg" xml:space="preserve" version="1.1" style="shape-rendering:geometricPrecision; text-rendering:geometricPrecision; image-rendering:optimizeQuality; fill-rule:evenodd; clip-rule:evenodd"
viewBox="0 0 1765.63 1768.27"
 xmlns:xlink="http://www.w3.org/1999/xlink"
 xmlns:xodm="http://www.corel.com/coreldraw/odm/2003">
 <defs>
  <style type="text/css">
   <![CDATA[
    .fil0 {fill:white}
   ]]>
  </style>
 </defs>
 <g id="Слой_x0020_1">
  <metadata id="CorelCorpID_0Corel-Layer"/>
  <g id="_1683205226912">
   <path class="fil0" d="M1037.3 1237.8c105.32,97.67 207.94,207.21 311.36,310.73 105.24,105.34 253.62,304.67 377.84,180.07 123.97,-124.35 -77.53,-275.82 -176.11,-373.98 -105.37,-104.93 -214.62,-208.52 -314.7,-315.22 28.67,-68.98 60.87,-91.18 88.76,-213.12 62.33,-272.55 -40.22,-511.32 -229.12,-673.31 -275.47,-236.24 -674.37,-181.06 -900.34,44.14 -223.79,223.03 -274.63,621.39 -48.39,897 83.26,101.44 209.2,198.34 388.89,236.39 91.06,19.28 191.64,17.08 282.47,-2.58 123.34,-26.7 148.4,-60.96 219.34,-90.11zm-458.62 -1177.27c-311.29,49.46 -579.45,332.15 -520.11,707.99 48.36,306.32 336.28,569.73 705.21,513.78 304.18,-46.14 575.32,-337.69 516.86,-704.32 -48.62,-304.94 -333.11,-576.04 -701.95,-517.44zm508.65 1142.96l114.07 114.03 115.24 -112.9 -115.48 -115.03c-4.76,2.74 -110.93,109 -113.83,113.89zm157.38 156.29c61.86,71.56 138.75,139.24 204.7,205.21 34.88,34.9 68.6,65.68 101.51,101.67 18.03,19.72 25.25,37.71 58.47,43.91 78.31,14.62 150.57,-70.33 58.97,-161.36 -49.98,-49.67 -271.92,-283.28 -310.68,-302.34 -30.82,16.9 -95.86,82.06 -112.97,112.91z"/>
   <path class="fil0" d="M577.98 146.24c-261.8,48.71 -495.94,293.96 -433.61,622.5 48.68,256.56 298.71,488.64 620.1,428 256.97,-48.48 492.16,-297.83 431.38,-621.31 -47.97,-255.25 -299.94,-488.34 -617.86,-429.19zm1.8 55.65c-277.76,57.55 -433.13,312.62 -379.95,565.8 47.51,226.19 273.7,434.23 563.74,373.57 226.87,-47.45 437.97,-273.6 376.84,-564.36 -47.43,-225.56 -271.75,-434.86 -560.62,-375z"/>
   <path class="fil0" d="M646.96 344.18c36.08,13.76 93.19,12.56 140.9,30.51 41.26,15.52 84.84,46.84 108.66,70.93 21.6,21.85 52.34,64.82 68.14,103.81 18.28,45.11 17.81,112.81 33.44,145.29l35.95 -0.28c50.29,-93.49 -70.66,-260.86 -107.32,-294.69 -68.45,-63.16 -297.19,-166.77 -279.77,-55.58z"/>
  </g>
 </g>
</svg>
