<?xml version="1.0" encoding="UTF-8"?>
<!DOCTYPE svg PUBLIC "-//W3C//DTD SVG 1.1//EN" "http://www.w3.org/Graphics/SVG/1.1/DTD/svg11.dtd">
<!-- Creator: CorelDRAW -->
<svg xmlns="http://www.w3.org/2000/svg" xml:space="preserve" version="1.1" style="shape-rendering:geometricPrecision; text-rendering:geometricPrecision; image-rendering:optimizeQuality; fill-rule:evenodd; clip-rule:evenodd"
viewBox="0 0 7918.34 7917.14"
 xmlns:xlink="http://www.w3.org/1999/xlink"
 xmlns:xodm="http://www.corel.com/coreldraw/odm/2003">
 <defs>
  <style type="text/css">
   <![CDATA[
    .fil0 {fill:black}
   ]]>
  </style>
 </defs>
 <g id="Слой_x0020_1">
  <metadata id="CorelCorpID_0Corel-Layer"/>
  <path class="fil0" d="M3205.09 3958.31l-2897.26 2900.8c-70.01,69.23 -159.95,147.8 -217.07,234.06 -208.5,314.89 -32.57,750.6 357.57,814.05 281.86,45.84 428.88,-115.51 599.41,-286.71l2910.48 -2908.45c53.27,36.44 167.28,162.63 221.3,217.06l2679.52 2679.58c67.26,67.8 150.2,163.08 233.75,217.2 495.03,320.64 1043.4,-271.69 737.03,-726.24 -90.17,-133.78 -1236.69,-1256.73 -1332.6,-1352.26l-1785.09 -1789.09c54.47,-67.84 151.81,-154.54 217.98,-220.2 77.82,-77.23 147.5,-148.6 225.23,-225.84l1342.47 -1342.45c300.1,-298.4 592.31,-591.5 891.63,-891.13 104.39,-104.5 365.07,-351.84 436.52,-454.9 202.75,-292.43 47.46,-747.4 -358.02,-814.35 -291.59,-48.14 -440.54,130.01 -598.23,287.72l-2013.69 2013.67c-151.1,151.38 -295.2,293.41 -445.54,445.83 -77.42,78.49 -147.82,147.52 -225.7,225.41 -62.29,62.29 -163.97,177.03 -226.58,222.97 -80.62,-63.24 -2523.14,-2519.9 -2680.2,-2677.39 -76.06,-76.27 -143.99,-143.71 -220.2,-220.11 -69.63,-69.81 -147.55,-159.92 -234.26,-216.78 -476.83,-312.67 -1042.71,244.89 -737.01,726.23 75.14,118.32 1253.25,1272.22 1333.16,1351.74l1785.39 1789.58z"/>
 </g>
</svg>
