<?xml version="1.0" encoding="UTF-8"?>
<!DOCTYPE svg PUBLIC "-//W3C//DTD SVG 1.1//EN" "http://www.w3.org/Graphics/SVG/1.1/DTD/svg11.dtd">
<!-- Creator: CorelDRAW -->
<svg xmlns="http://www.w3.org/2000/svg" xml:space="preserve" version="1.1" style="shape-rendering:geometricPrecision; text-rendering:geometricPrecision; image-rendering:optimizeQuality; fill-rule:evenodd; clip-rule:evenodd"
viewBox="0 0 2504.39 2160.41"
 xmlns:xlink="http://www.w3.org/1999/xlink"
 xmlns:xodm="http://www.corel.com/coreldraw/odm/2003">
 <defs>
  <style type="text/css">
   <![CDATA[
    .fil0 {fill:#010101}
    .fil1 {fill:#767676}
   ]]>
  </style>
 </defs>
 <g id="Слой_x0020_1">
  <metadata id="CorelCorpID_0Corel-Layer"/>
  <g id="_2382750930784">
   <path class="fil0" d="M2173.83 2160.41l0.58 -527.42c391.12,-38.42 318.69,-404.72 319.84,-759.1 1.18,-361.21 83.59,-761.89 -242.26,-851.16 -148.35,-40.64 -883.41,-14.29 -1090.78,-14.55 -1269.66,-1.55 -1160.45,-115.33 -1157.85,1040.8 0.98,436.51 -2.73,586.46 505.27,587.39l812.56 -0.79c114.75,0.6 136.04,29.61 206.58,81.14l646.05 443.69zm-151.02 -284.12l0.36 -391.99 177.37 -6.58c139.52,-22.46 148.53,-143.05 147.77,-285.29l-5.56 -896.82c-31.74,-143.29 -164.25,-139.08 -322.02,-138.42 -237.69,1 -1690.55,-31.84 -1795.02,35.64 -103.17,66.64 -75.81,215.24 -75.86,362.72 -0.26,919.57 -89.8,932.85 422.45,932.34 141.22,-0.14 819.77,-19.53 899.97,12.18 39.46,15.6 225.1,156.29 272.91,190.47l277.63 185.75z"/>
   <path class="fil0" d="M659.49 487.6c54.48,49.58 560.79,28.1 676.8,27.93 252.08,-0.37 418.43,40.71 394.04,-83.45 -334.74,-23.59 -600.22,-8.61 -936.17,-12.39 -86.18,-0.97 -138.28,-16.82 -134.67,67.9z"/>
   <path class="fil0" d="M1049.8 852.36l827.18 -6.42c17.4,-121.83 -65.21,-92.45 -158.69,-92.45 -191.02,0 -381.97,-0.7 -573,-0.46 -59.16,0.08 -230.96,-17.37 -267.15,15.95 -97.85,90.06 117.82,82.84 171.66,83.38z"/>
   <path class="fil0" d="M763.3 1186.58c160.62,0.12 783.66,28.92 857.18,-23.96 -3.76,-113.67 -173.83,-73.33 -395.6,-73.46 -74.15,-0.05 -516.09,-24.03 -557.4,24.14 -56.33,65.68 48.29,72.75 95.83,73.28z"/>
   <path class="fil1" d="M2022.8 1876.29l14.87 -379.77c25.36,0.19 54.9,1.69 79.21,0.55 15.54,-0.73 31.6,-0.97 46.82,-4.26 42.74,-9.26 26.14,-9.52 36.83,-15.09l-177.37 6.58 -0.36 391.99z"/>
  </g>
 </g>
</svg>
