<?xml version="1.0" encoding="UTF-8"?>
<!DOCTYPE svg PUBLIC "-//W3C//DTD SVG 1.1//EN" "http://www.w3.org/Graphics/SVG/1.1/DTD/svg11.dtd">
<!-- Creator: CorelDRAW -->
<svg xmlns="http://www.w3.org/2000/svg" xml:space="preserve" version="1.1" style="shape-rendering:geometricPrecision; text-rendering:geometricPrecision; image-rendering:optimizeQuality; fill-rule:evenodd; clip-rule:evenodd"
viewBox="0 0 880.56 880.68"
 xmlns:xlink="http://www.w3.org/1999/xlink"
 xmlns:xodm="http://www.corel.com/coreldraw/odm/2003">
 <defs>
  <style type="text/css">
   <![CDATA[
    .fil0 {fill:white}
   ]]>
  </style>
 </defs>
 <g id="Слой_x0020_1">
  <metadata id="CorelCorpID_0Corel-Layer"/>
  <path class="fil0" d="M387.71 4.03c-252.03,35.35 -415.66,255.1 -383.74,492.52 29.84,221.96 230.46,413.17 490.04,380.47 315.36,-39.73 481.76,-385.42 329.3,-653.38 -81.77,-143.7 -250.94,-245.51 -435.6,-219.61zm17.85 61.11c-115.11,12.78 -199.31,66.77 -249.67,127.91 -14.95,18.15 -25.38,30.15 -39.33,53.26 -40.78,67.56 -59.65,146.48 -51.79,229.44 18.44,194.7 191.68,362.31 410.9,340.07 195.78,-19.87 361.25,-189.33 339.96,-411.07 -20.1,-209.29 -208.31,-362 -410.08,-339.6z"/>
  <path class="fil0" d="M408.81 329.19c2.38,90.81 0.34,199.41 -0.06,293.12 -0.14,32.35 -4.52,68.81 31.38,69.1 35.81,0.29 31.1,-34.4 31.15,-66.02 0.06,-32.86 -0.24,-65.92 0.11,-98.74 0.69,-65.71 -0.59,-131.56 0.22,-197.29 11.4,5.83 56.24,53.39 68.82,66.21 33.91,34.56 77.6,-7.88 45.39,-42.4 -22.85,-24.49 -45.76,-45.78 -69.27,-69.63 -84.75,-85.96 -70.15,-82.71 -151,-1.24 -23.58,23.76 -46.54,45.16 -69.56,69.31 -34.14,35.8 9.13,77.13 42.54,45.7 15.93,-14.98 55.58,-60.11 70.29,-68.13z"/>
 </g>
</svg>
