<?xml version="1.0" encoding="UTF-8"?>
<!DOCTYPE svg PUBLIC "-//W3C//DTD SVG 1.1//EN" "http://www.w3.org/Graphics/SVG/1.1/DTD/svg11.dtd">
<!-- Creator: CorelDRAW -->
<svg xmlns="http://www.w3.org/2000/svg" xml:space="preserve" width="108.924mm" height="125.673mm" version="1.1" style="shape-rendering:geometricPrecision; text-rendering:geometricPrecision; image-rendering:optimizeQuality; fill-rule:evenodd; clip-rule:evenodd"
viewBox="0 0 501.17 578.23"
 xmlns:xlink="http://www.w3.org/1999/xlink"
 xmlns:xodm="http://www.corel.com/coreldraw/odm/2003">
 <defs>
  <style type="text/css">
   <![CDATA[
    .str0 {stroke:black;stroke-width:0.78;stroke-miterlimit:22.9256}
    .fil0 {fill:black}
   ]]>
  </style>
 </defs>
 <g id="Слой_x0020_1">
  <metadata id="CorelCorpID_0Corel-Layer"/>
  <g id="_2192995762736">
   <path class="fil0" d="M0.85 489.92c0,16.98 2.85,25.46 17.84,38.7 10.84,9.57 19.24,10.58 37.97,10.58 2.98,22.56 -6.88,39.03 15.33,39.03l358.72 0c20.89,0 9.67,-17.16 13.45,-39.03 11.45,0 20.05,1.11 32.16,-5.23 2.69,-1.41 4.68,-3.24 7.43,-5.65l11.34 -12.99c10.09,-17.66 2.91,-50.5 0.36,-69.05 -3.99,-29.04 -13.42,-112.72 -18.05,-137.65l-12.13 -91.78c-0.97,-7.99 -2.11,-13.45 -3.3,-22.4 -2.92,-22.07 -24.86,-39.69 -39.39,-39.69l-68.17 0.43c-70.37,1.34 -158.34,0.12 -230.49,0.03 -29.43,-0.04 -57.05,-6.47 -74.48,16.81 -2.96,3.95 -2.94,3.32 -5.14,7.72 -8.07,16.18 -15.9,104.45 -19.29,125.36l-24.16 184.79zm48.41 29.23c18.66,-1.15 18.74,-1.46 36.07,1.13 3.65,0.55 7.22,0.46 10.96,0.43l285.71 -0.04c10.22,-0.03 33.72,-3.31 17.86,18.19l-321.11 0.34 -0.79 18.34 346.24 0c-0.5,-8.1 -2.62,-25.53 0.8,-32.81 2.97,-6.33 6.54,-4.07 20.3,-4.07l15.36 -2.48c5.78,-1.28 8.3,-4.52 11.58,-7.81 9.59,-9.6 8.3,-12.97 6.56,-30.08 -8.59,-84.31 -24.52,-180.95 -34.63,-266.52 -2.81,-23.79 -8.68,-40.37 -36.16,-40.11l-303.57 0.03c-14.6,-0 -31.19,-2.33 -41.33,15.26 -5.49,9.51 -15.68,98.45 -17.78,114.92 -0.67,5.28 -1.24,11.25 -1.82,16.4l-19.62 152.19c-2.4,17.51 -5.25,32 10.06,42.49 2.9,1.98 13.37,4.33 15.31,4.19z"/>
   <path class="fil0" d="M173.34 111.72c-0.01,15.59 -3.18,26.58 16.49,22.07 4.51,-8.85 7.57,-30.11 1.15,-38.81 -3.82,-5.16 -25.83,-6.57 -39.32,-9.3 -8.15,-1.65 -18.84,-4.91 -25.89,-6.69 -14.9,-3.75 -44.2,-14.02 -57.59,-21.83 -4.52,-2.64 -6.18,-3.35 -10.4,-5.84 -7.02,-4.15 -28.05,-25.11 -32.86,-32.14l449.63 0c-2.71,20.35 -60.04,49.58 -79.22,55.38 -46.49,14.04 -71.92,20.03 -128.54,20.03 -4.7,0 -5.04,1.4 -9.74,1.4l-38.95 -0.27c-24.52,26.52 28,19.24 43.82,19.22 8.16,-0.01 16.55,0.85 24.44,0.65 9.69,-0.25 10.59,-2.08 22.37,-1.67 0.88,12.7 -1.86,11.08 3.82,20.21 16.87,3.27 16.64,-6.8 16.71,-21.58 3.17,-1.73 59.15,-12.9 78.62,-20.55 4.54,-1.78 7.71,-3.04 11.54,-4.49l33.44 -16.95c16.67,-12.03 41.89,-32.2 47.47,-53.51 5.74,-21.93 -17.72,-16.43 -50.12,-16.43 -133.1,0 -266.2,0 -399.3,0 -43.14,0 -67.34,-8.03 -38.01,37.07 4.38,6.74 10.78,12.81 16.36,17.71 4.05,3.56 4.47,4.05 9.19,7.14 3.08,2.02 5.64,4.37 9.41,6.81 25.52,16.55 67.59,29.25 97.77,35.43 7.06,1.45 21.45,3.59 27.73,6.94z"/>
   <ellipse class="fil0" cx="250.86" cy="447.64" rx="10.3" ry="14.96"/>
   <ellipse class="fil0" transform="matrix(2.64845E-14 1 -1 2.64845E-14 351.894 347.534)" rx="10.3" ry="14.96"/>
   <ellipse class="fil0" transform="matrix(2.64845E-14 -1 1 2.64845E-14 149.439 347.464)" rx="10.3" ry="14.96"/>
   <path class="fil0 str0" d="M250.63 501.85c85.48,0 154.77,-69.29 154.77,-154.77 0,-85.48 -69.29,-154.77 -154.77,-154.77 -85.48,0 -154.77,69.29 -154.77,154.77 0,85.48 69.29,154.77 154.77,154.77zm0 -18.08c75.49,0 136.69,-61.2 136.69,-136.69 0,-75.49 -61.2,-136.69 -136.69,-136.69 -75.49,0 -136.69,61.2 -136.69,136.69 0,75.49 61.2,136.69 136.69,136.69z"/>
   <path class="fil0 str0" d="M250.63 377.09c16.57,0 30.01,-13.43 30.01,-30.01 0,-13.31 -8.67,-24.59 -20.66,-28.52l0 -78.74c0,-5.14 -4.2,-9.34 -9.34,-9.34 -5.14,0 -9.34,4.2 -9.34,9.34l0 78.74c-12,3.93 -20.66,15.21 -20.66,28.52 0,16.57 13.43,30.01 30.01,30.01z"/>
  </g>
 </g>
</svg>
