<?xml version="1.0" encoding="UTF-8"?>
<!DOCTYPE svg PUBLIC "-//W3C//DTD SVG 1.1//EN" "http://www.w3.org/Graphics/SVG/1.1/DTD/svg11.dtd">
<!-- Creator: CorelDRAW -->
<svg xmlns="http://www.w3.org/2000/svg" xml:space="preserve" version="1.1" style="shape-rendering:geometricPrecision; text-rendering:geometricPrecision; image-rendering:optimizeQuality; fill-rule:evenodd; clip-rule:evenodd"
viewBox="0 0 5017.62 1864.96"
 xmlns:xlink="http://www.w3.org/1999/xlink"
 xmlns:xodm="http://www.corel.com/coreldraw/odm/2003">
 <defs>
  <style type="text/css">
   <![CDATA[
    .fil1 {/*fill:#333333*/fill:#ffffff}
    .fil0 {fill:#38B037}
   ]]>
  </style>
 </defs>
 <g id="Слой_x0020_1">
  <metadata id="CorelCorpID_0Corel-Layer"/>
  <g id="_2396199473024">
   <path class="fil0" d="M813.59 917.24c112.08,0 335.63,-23.27 405.81,40.29 29.24,26.48 70.01,93.51 93.24,130.16 46.83,73.88 84.07,36.84 120.5,112.02 29.89,61.67 7.6,133.75 -31.52,161.69 -66.33,47.37 -34.21,-15.55 -80.37,151.82 -33.12,120.07 -57.96,249.68 -110.13,350.19 433.63,0 360.39,50.89 360.39,-548.6 0,-228.71 24.58,-703.79 -21.16,-895.34l-713.78 2.71c-43.87,147.75 -22.99,333.87 -22.99,495.05zm67.14 -373.12c-16.73,24.02 -37.89,253.85 29.73,206.65 22.08,-15.42 12.72,-80.44 12.94,-114.93 0.36,-55.17 13.63,-95.13 -42.67,-91.71z"/>
   <path class="fil0" d="M1293.13 1393.9l-412.4 0c-1.49,2.37 -2.96,3.44 -3.5,7.65 -0.52,4.15 -2.6,5.7 -3.28,7.62 -0.67,1.88 -2.1,5.29 -2.88,7.59l-10.54 36.04c-39.56,100.26 -282.53,51.02 -297.83,40.82 -42.69,-28.46 -32.57,-69.68 -53.94,-99.72l-409.16 0c5.76,51.41 96.96,388.46 116.71,417.65 44.4,65.6 114.06,51.9 208.76,51.87l530.05 -0c93.23,0.02 175.35,15.24 219.57,-50.1 21.98,-32.49 109.08,-361.17 118.43,-419.41zm-1035.2 226.77c13.51,-30.11 -10.72,-199.4 -61.38,-173.23 -33.01,17.06 -7.23,67.72 2.47,102.9 14.35,52.04 6.39,71.42 58.9,70.33z"/>
   <path class="fil1" d="M3003.31 1003.3l115.61 0c18.6,-57.99 5.47,-428.46 7.33,-521.71 55.61,65.87 299.17,483.99 335.14,521.57l121.34 0.16c14.97,-60.11 10.42,-656.15 3.37,-747.09l-125.11 1.44 -2.21 517.57c-29.1,-22.83 -134.62,-205.26 -166.62,-253.78 -29.02,-43.99 -55.64,-89.38 -82.55,-131.41 -29.66,-46.33 -52.58,-96.1 -85.46,-130.64l-124.3 -2.6c-10.12,70.02 -11.12,702.44 3.46,746.48z"/>
   <polygon class="fil1" points="4425.74,1000.2 4555.21,1003.76 4555.2,672.54 4888.71,670.73 4888.71,1003.25 5017.62,1002.67 5017.46,258 4891.07,256.94 4888.52,566.24 4555.21,565.93 4554.76,257.04 4427.62,257.57 "/>
   <path class="fil1" d="M2856.53 259.64l-124.53 -2.97c-38.99,326.2 88.82,649.87 -149.43,652.01 -232.4,2.09 -129.34,-301.66 -153.94,-648.91l-124.81 -3.12c-14.06,113.97 -8.18,388.69 -1.96,510.01 17.05,332.42 531.66,328.99 554.8,5.86 9.47,-132.19 9.43,-380.82 -0.14,-512.89z"/>
   <path class="fil1" d="M4305.41 759.2l-122.33 0c-14.11,51.24 -18.92,93.32 -62.75,122.09 -38.46,25.24 -106.92,35.49 -156.9,19.77 -155.91,-49.03 -163.06,-478.06 -5.98,-535.63 49.45,-18.12 117.29,-15.86 158.96,10.45 42.92,27.1 50.62,66.52 66.56,127.6l124.64 -0.72c-14.23,-169.51 -150.22,-291.66 -344,-252.01 -169.11,34.61 -244.03,168.99 -246.29,366.48 -2.23,195.22 61.03,351.69 225.47,387.49 187.32,40.78 366.39,-71.38 362.62,-245.51z"/>
   <path class="fil1" d="M1757.8 1617.22l34.22 2.57 93.02 -0.42c194.37,0 288.77,-115.39 263.54,-319.29 -23.81,-192.43 -188.23,-230.49 -390.85,-205.57l0.08 522.71zm91.69 -71.57l35.54 2.02c134.03,5.87 176.59,-77.56 174.45,-204.97 -2.48,-147.88 -62.15,-185.04 -210.04,-175.08l0.05 378.03z"/>
   <path class="fil0" d="M521.56 1338.02c0.4,-132.16 49.57,-132.59 173.19,-132.59 124.34,0 173.85,-0.44 174.64,132.59 70.2,0 445.52,16.66 492.72,-16.41 35.99,-25.22 37.08,-87.58 2.21,-118.21 -48.26,-42.4 -566.32,-21.05 -669.57,-21.05 -99.25,0 -617.93,-16.56 -664.36,16.85 -31.92,22.97 -42.47,78.72 -13.22,113.85 29.56,35.5 102.34,25.06 156.82,24.98 115.85,-0.16 231.71,-0.01 347.56,-0.01z"/>
   <path class="fil0" d="M122.64 1124.4l1145.43 2.1c-51.68,-115.3 -100.83,-153.8 -201.01,-153.64l-735.22 0.07c-68.16,-0.28 -101.99,2.81 -138.83,44.7 -20.57,23.39 -58.19,79.44 -70.38,106.77z"/>
   <path class="fil1" d="M4175.97 1616.95l88.87 2.83 3.12 -202.44c169.9,-14.96 89.65,21.78 209.72,202.03l93.51 0 -112.49 -220.57 54.53 -41c45.61,-46.59 56.92,-163.73 -5.73,-219.73 -65.82,-58.83 -231.19,-57.2 -331.67,-43.24l0.15 522.12zm91.68 -276.24l35.14 2.46 37.22 -0.41c75.96,0 138.21,-29.63 116.65,-116.61 -17.55,-70.78 -112.5,-64.68 -189.04,-58.11l0.03 172.67z"/>
   <polygon class="fil1" points="1757.83,1001.88 2222.68,1003.18 2225.39,901.38 1887.08,898.11 1886.86,257.04 1759.31,257.75 "/>
   <path class="fil0" d="M877.29 202.37l631.09 1.2c21.21,-86.39 -22.17,-153.7 -70.94,-180.4 -60.44,-33.09 -434.44,-27.78 -483.99,-2.61 -56.61,28.76 -91.42,95.08 -76.16,181.81z"/>
   <path class="fil1" d="M3756.04 1618.09l342.01 1.37 3.01 -72.11 -253.63 -0.26 0 -162.07 210.78 -0.5c10.1,-29.17 8.86,-45.87 0,-74.35l-210.78 -0.11 0 -143.76 251.1 -0.32 -0.02 -74.3 -342.66 0.24 0.19 526.16z"/>
   <path class="fil1" d="M2243.24 1584.49l2.65 34.95 341.06 -0.44 1.76 -68.37 -253.64 -4.27 0.77 -159.95 216.14 -2.06 0 -74.19 -214.07 -0.4 -3.2 -140.09c69.81,-9.15 177.29,-3.95 251.25,-3.69l0.17 -74.3 -338.43 0 -4.47 492.81z"/>
   <polygon class="fil1" points="3417.51,1619.96 3504.25,1619.36 3694.72,1095.78 3593.95,1091 3462.78,1499.37 3328.77,1092.02 3229.63,1091.68 "/>
   <path class="fil0" d="M890.03 366.26l604.44 0c75.67,0 80.42,-41.85 59.57,-96.06 -68.92,-22.59 -559.59,-10.79 -668.66,-10.79 -94.53,0 -88.4,106.85 4.65,106.85z"/>
   <path class="fil1" d="M4750.95 1619.36l87.62 -0.55c15.34,-174.41 -27.11,-147.17 56.84,-297.06 39.39,-70.33 79.98,-163.87 119.65,-226.34 -123.37,-16.59 -99.79,-3.03 -153.07,109.37 -18.16,38.31 -42.38,92.36 -66.32,128.24 -1.56,-1.47 -3.77,-6.15 -4.33,-4.75 -0.56,1.4 -3.45,-3.84 -4.2,-4.9l-112.04 -231.33 -101.57 0.42c24.64,67.02 86.7,161.56 121.19,230.09 98.79,196.28 35.4,100.93 56.23,296.8z"/>
   <polygon class="fil1" points="2663.25,1584.49 2665.58,1619.42 2991.64,1619.36 2995.55,1584.55 2994.92,1547.34 2755.09,1547.34 2755.1,1095.7 2722.05,1090.88 2663.3,1091.68 "/>
   <polygon class="fil1" points="3070.73,1584.49 3073.38,1619.44 3159.31,1619.36 3162.69,1584.54 3162.08,1091.68 3070.97,1091.68 "/>
   <path class="fil0" d="M577.63 1324.12c-0.02,150.02 -20.23,130.14 172.92,130.14 74.98,0 62.9,-41.17 62.87,-130.14 -0.01,-32.78 -2.61,-36.34 -11.79,-58.72l-162.67 -4.03c-56.5,0 -61.32,6.51 -61.33,62.75z"/>
  </g>
 </g>
</svg>
