<?xml version="1.0" encoding="UTF-8"?>
<!DOCTYPE svg PUBLIC "-//W3C//DTD SVG 1.1//EN" "http://www.w3.org/Graphics/SVG/1.1/DTD/svg11.dtd">
<!-- Creator: CorelDRAW -->
<svg xmlns="http://www.w3.org/2000/svg" xml:space="preserve" version="1.1" style="shape-rendering:geometricPrecision; text-rendering:geometricPrecision; image-rendering:optimizeQuality; fill-rule:evenodd; clip-rule:evenodd"
viewBox="0 0 2042.7 2042.52"
 xmlns:xlink="http://www.w3.org/1999/xlink"
 xmlns:xodm="http://www.corel.com/coreldraw/odm/2003">
 <defs>
  <style type="text/css">
   <![CDATA[
    .fil0 {fill:white}
   ]]>
  </style>
 </defs>
 <g id="Слой_x0020_1">
  <metadata id="CorelCorpID_0Corel-Layer"/>
  <g id="_2511337554432">
   <path class="fil0" d="M456.72 7.46c-156.72,18.25 -267.65,96.06 -334.2,178.6 -91.67,113.71 -119.78,204.16 -119.62,389.5 0.15,182.93 -8.94,893.4 4.32,1014.45 16.67,152.17 100.41,266.7 178.9,330.02 111.52,89.98 205.83,119.64 389.65,119.49 184.6,-0.14 892.03,9.02 1015.15,-4.09 150.76,-16.05 266.91,-101.08 329.53,-178.89 90.25,-112.12 119.42,-205.72 119.28,-389.88 -0.14,-184.26 9,-892.45 -4.12,-1015.13 -16.18,-151.26 -100.87,-265.78 -178.97,-329.46 -107.96,-88.03 -210.87,-119.53 -389.77,-119.38 -177.87,0.15 -894.87,-8.67 -1010.15,4.76zm-11.22 172.6c-116.25,24.08 -195.61,97.63 -239.09,185.32 -50.36,101.57 -33.4,269.02 -33.4,394.77 0,137.47 -9.57,757.61 7.46,841.53 22.34,110.05 100.89,193.94 184.81,234.56 103.23,49.97 268.13,33.48 395.06,33.48 134.72,0 760.09,9.38 840.43,-7.41 111.46,-23.29 195.17,-100.17 235.81,-184.98 49.61,-103.53 33.15,-268.24 33.15,-395.25 0,-135.36 9.56,-760.21 -7.59,-841.45 -23.2,-109.98 -100.76,-195.02 -184.78,-234.68 -104.56,-49.36 -267.83,-33.31 -395.1,-33.31 -134.59,0 -755.75,-9.36 -836.78,7.42z"/>
   <path class="fil0" d="M965.83 516.59c-265.6,30.61 -482.13,260.99 -449.42,564.21 28.32,262.48 266.07,476.78 565.32,445.49 260.92,-27.29 475.91,-266.25 444.86,-565.04 -26.82,-258.02 -267.42,-478.46 -560.75,-444.65zm-11.14 172.65c-162.61,33.08 -311.08,192.19 -264.99,403.16 35.18,161.04 192.98,304.33 401.89,260.73 161.06,-33.61 306.66,-194.32 261.86,-402.31 -34.44,-159.87 -193.37,-303.35 -398.75,-261.57z"/>
   <path class="fil0" d="M1530.88 350.81c-148.57,52.38 -83.48,291.32 83.64,238.5 55.67,-17.59 103.49,-84.58 78.3,-163.51 -17.65,-55.28 -87.29,-101.3 -161.94,-74.99z"/>
  </g>
 </g>
</svg>
