<?xml version="1.0" encoding="UTF-8"?>
<!DOCTYPE svg PUBLIC "-//W3C//DTD SVG 1.1//EN" "http://www.w3.org/Graphics/SVG/1.1/DTD/svg11.dtd">
<!-- Creator: CorelDRAW -->
<svg xmlns="http://www.w3.org/2000/svg" xml:space="preserve" version="1.1" style="shape-rendering:geometricPrecision; text-rendering:geometricPrecision; image-rendering:optimizeQuality; fill-rule:evenodd; clip-rule:evenodd"
viewBox="0 0 2902.8 2902.86"
 xmlns:xlink="http://www.w3.org/1999/xlink"
 xmlns:xodm="http://www.corel.com/coreldraw/odm/2003">
 <defs>
  <style type="text/css">
   <![CDATA[
    .fil0 {fill:black}
   ]]>
  </style>
 </defs>
 <g id="Слой_x0020_1">
  <metadata id="CorelCorpID_0Corel-Layer"/>
  <g id="_2364263128544">
   <path class="fil0" d="M1452.19 2455.9c16.54,-9.33 144.01,-142.07 160.53,-162.89l93.39 -107.4c56.51,-63.62 184.68,-232.68 226.61,-296.9 81.43,-124.7 125.72,-189.76 196.62,-326.93 58,-112.21 112.01,-242.23 147.01,-376.63 118.39,-454.6 -31.26,-859.31 -409.66,-1077.1 -255.98,-147.32 -571.94,-140.78 -829,-0.06 -220.21,120.55 -393.76,355.76 -436.47,611.14 -27.48,164.31 -13.92,310.78 25.75,467.23 34.32,135.37 87.61,266.18 144.96,378.49 30.67,60.07 60.1,111.35 92.84,167.03 81.73,139.03 238.74,352.88 345.47,473.31l241.97 250.69zm0 -186.88c40.61,-35.79 174.76,-196.36 209.17,-238.37 15.98,-19.51 31.22,-40.38 48.1,-62.17 175.83,-227.05 354.12,-514.2 436.14,-803.53 76.56,-270.09 42.24,-526.21 -97.22,-719.03 -315.64,-436.41 -921.95,-390.82 -1187.09,-6.52 -148.83,215.72 -175.46,426.24 -103.47,722.65 72.02,296.53 297.68,643.52 482.29,867.6 16.54,20.08 33.03,39.74 49.61,60.67 24,30.3 136.14,155.73 162.48,178.71z"/>
   <path class="fil0" d="M794.93 2036.47c-217.5,29.92 -694.72,126.76 -781.24,342.4 -46.96,117.04 37.29,206.69 96.22,253.48 244.38,194.02 854.25,261.77 1236.08,269.69 377.87,7.83 1308.52,-35.58 1523.47,-348.19 68.51,-99.64 19.76,-209.71 -41.5,-265.84 -121.26,-111.09 -330.21,-173.97 -532.95,-219.15 -38.93,-8.68 -205.4,-45.52 -240.07,-30.18 -45.37,20.06 -52.3,83.23 -10.22,115.43 17.69,13.54 50.04,15.8 75.32,19.31 143.2,19.92 319.79,62.87 448.63,113.88 65.11,25.78 218.05,97.54 201.03,174.47 -25.87,116.99 -401.44,213.67 -516.46,235.21 -230.31,43.12 -438.74,64.32 -681.13,71.45 -395.05,11.62 -996.48,-34.48 -1306.34,-193.53 -81.91,-42.05 -194.33,-112.41 -88.1,-197.53 136.87,-109.68 377.47,-161.4 556.05,-195.57 57.43,-10.99 116.76,-6.13 138.57,-50.51 27.69,-56.33 -16.84,-103.12 -77.36,-94.8z"/>
   <path class="fil0" d="M1408.41 437.88c-128.15,15.99 -211.66,79.5 -268.9,145.83 -147.07,170.45 -121.16,443.58 46.89,586.47 72.2,61.4 178.37,116.06 312.33,99.1 231.84,-29.35 387.97,-244.63 360.36,-461.45 -29.27,-229.8 -227.1,-397.85 -450.67,-369.96zm-7.99 137.76c-137.61,26.32 -248.86,159.44 -221.4,331.18 21.57,134.92 157.8,256.87 323.72,225.31 135.62,-25.79 251.19,-156.97 223.41,-328.34 -22.17,-136.78 -158.4,-260.16 -325.74,-228.16z"/>
  </g>
 </g>
</svg>
