<?xml version="1.0" encoding="UTF-8"?>
<!DOCTYPE svg PUBLIC "-//W3C//DTD SVG 1.1//EN" "http://www.w3.org/Graphics/SVG/1.1/DTD/svg11.dtd">
<!-- Creator: CorelDRAW -->
<svg xmlns="http://www.w3.org/2000/svg" xml:space="preserve" version="1.1" style="shape-rendering:geometricPrecision; text-rendering:geometricPrecision; image-rendering:optimizeQuality; fill-rule:evenodd; clip-rule:evenodd"
viewBox="0 0 3227.78 3007.06"
 xmlns:xlink="http://www.w3.org/1999/xlink"
 xmlns:xodm="http://www.corel.com/coreldraw/odm/2003">
 <defs>
  <style type="text/css">
   <![CDATA[
    .fil0 {fill:black}
    .fil1 {fill:black}
   ]]>
  </style>
 </defs>
 <g id="Слой_x0020_1">
  <metadata id="CorelCorpID_0Corel-Layer"/>
  <g id="_2157321443904">
   <path class="fil0" d="M2560.1 448.72c33.66,-2.59 185.58,-4.36 203.98,13.76 29.38,28.94 16.01,589.6 15.54,649.23 -0.73,93.37 -3.38,120.19 54.33,166.17 96.11,76.58 234.57,79.53 336.02,2.88 73.32,-55.39 56.21,-56.26 55.76,-169.36 -0.5,-125.24 5.51,-831.47 -2.16,-885.4 -13.12,-92.34 -133.33,-212.76 -223.08,-220.84 -128.15,-11.53 -315.42,-0.04 -450.35,-0.52 -295.12,-1.04 -590.35,-0.02 -885.48,-0.06 -292.53,-0.03 -597.04,-7.49 -886.78,3.73 -194.54,7.53 -671.24,-1.32 -766.3,121.73 -40.43,52.34 36.25,304.47 57.65,363.08 76.16,208.65 249.23,391.95 256.39,414.88 8.24,26.41 4.64,1479.89 5,1547.21 0.56,104.56 77.83,250.74 128.18,312.45 89.83,110.08 259.64,238.99 427.04,239.39l1114.88 0.01c263.45,-1.52 553.89,-307.03 553.61,-551.84 -0.76,-663.58 -3.89,-1345.55 5.77,-2006.51zm-2451.37 -268.45c23.83,257.43 140.51,459.16 299.25,645.77 43.97,51.68 28.76,93.71 29.24,209.02l5.37 1183.18c1.36,150.83 -8.25,301.78 55.92,417.99 160.66,290.94 408.17,259.51 692.88,262.94 179.27,2.16 783.04,15.35 919.01,-28.68 128.81,-41.71 204.39,-115.99 262.59,-211.08 75.97,-124.12 69.88,-245.11 71.53,-410.64 2.06,-207.41 -16.49,-1836.79 14.14,-1884.42 26.84,-44 311.37,-67.32 392.11,34.2 35.16,44.21 38.5,55.79 38.5,124.87 0.02,220.56 3.23,443.69 5.71,663.97 78.56,52.19 173.3,58.1 203.79,6.82 27.03,-45.46 10.44,-729.39 9.63,-808 -0.84,-81.55 35.21,-269.12 -145.76,-268.92l-1801.79 1.62c-182.87,1.52 -368.26,5.61 -549.41,6.71 -137.9,0.84 -381.6,23.07 -502.72,54.63z"/>
   <path class="fil1" d="M2000.94 607.32c-22.27,20.66 -415.07,8.95 -443.91,9.8l0.43 105.08 343.83 0.76c17.94,-0 35.91,-0.39 53.79,-0.44 29.78,-0.09 35.38,-6.61 43.87,12.29l0.35 156.26 -218.54 1.85 -3.72 111.03 222.23 0.69 -0.36 166.04 -435.44 1.51 -4.02 106.48 395.53 0.71c52.09,-0.5 39.66,-0.21 45.51,8.94l-1.42 160.14 -220.3 -0.84 1.91 108.91 221.62 2.18 -0.66 172.02 -445.8 0.51 0.84 106.41 344.6 0.64c65.47,-0.02 88.3,-10.67 97.13,13.5l0.91 153.39 -219.17 1.73 -3.13 112.23 222.21 0.59 -0.38 165.24 -435.17 1.39 -4.23 107.8 341.83 1.09c17.93,0 35.77,0 53.69,-0.25 52.97,-0.74 39.2,-1.97 45.79,7.33 -3.28,41.02 -7.48,125.63 3.65,162.62l104.83 -0.43 2.51 -2114.04 -110.78 -3.8 -0.05 160.62z"/>
  </g>
 </g>
</svg>
