<?xml version="1.0" encoding="UTF-8"?>
<!DOCTYPE svg PUBLIC "-//W3C//DTD SVG 1.1//EN" "http://www.w3.org/Graphics/SVG/1.1/DTD/svg11.dtd">
<!-- Creator: CorelDRAW -->
<svg xmlns="http://www.w3.org/2000/svg" xml:space="preserve" version="1.1" style="shape-rendering:geometricPrecision; text-rendering:geometricPrecision; image-rendering:optimizeQuality; fill-rule:evenodd; clip-rule:evenodd"
viewBox="0 0 9033.32 6500.38"
 xmlns:xlink="http://www.w3.org/1999/xlink"
 xmlns:xodm="http://www.corel.com/coreldraw/odm/2003">
 <defs>
  <style type="text/css">
   <![CDATA[
    .fil0 {fill:black}
   ]]>
  </style>
 </defs>
 <g id="Слой_x0020_1">
  <metadata id="CorelCorpID_0Corel-Layer"/>
  <g id="_3066687535552">
   <path class="fil0" d="M6350.07 2030.52l186.44 320.26 210.24 -24.06c-4.72,-33.77 -246.65,-433.19 -283.72,-499.36l-434.41 -752.87c-46.94,-83.15 -95.5,-171.62 -145.48,-252.71 -103.88,-168.57 -189.38,-338.25 -291.4,-505.64l-144.95 -245.31c-73.08,-90.19 -182.64,-87.61 -281.42,-29.67 -327.66,192.2 -687.37,389.55 -1010.11,583.28 -305.77,183.54 -692.74,400.36 -1005.16,580.48l-757.73 437.49c-82.63,49.29 -169.19,100.76 -252.3,145.97 -239.61,130.34 -509.82,294.62 -752.82,434.37l-757.09 437.97c-167.51,98.25 -337.92,189.81 -505.58,291.48 -49.89,30.25 -74.21,43 -101.45,93.2 -24.95,45.97 -31.94,108.06 -9.88,166.06l723.6 1260.43c228.75,410.56 499.11,842.07 723.79,1252.09 46.26,84.42 90.55,182.47 194.56,202.57 63.23,12.22 109.11,-6.62 153.12,-30.41l382.07 -219.64c332.23,-200.87 675.49,-382.67 1009.98,-583.84l1005.48 -579.74c169.17,-94.83 337.31,-197.61 505.08,-291.83 87.57,-49.18 167.66,-97.45 252.12,-146.29 89.11,-51.53 51.02,-9.06 80.56,-114.3 16.83,-59.95 50.78,-94.77 32.02,-143.05 -85.51,-220.13 -77.9,-444.1 16.37,-654.19 78.38,-174.69 230.93,-306.78 384.08,-412.72 79.05,-54.68 155.17,-101.28 249.05,-149.29 86.2,-44.09 124.43,-55.44 203.8,-88.98 60.81,-25.7 33.88,-102.59 199.84,-304.3 36.22,-44.03 154.14,-153.8 221.3,-177.49zm-3643.02 1317.73c-98.72,56.52 -180.53,77.98 -150.26,140.39 20.68,42.65 101.31,181.39 125.83,199.56 55.12,4.13 121.98,-61.98 178.13,-80.46 32.54,74.77 153.25,247.38 172.49,308.41 -39.2,18.61 -129.47,67.76 -153.31,97.95 -3.4,49.04 101.06,218.22 127.11,242.76 63.18,4.25 124.51,-62.61 183.17,-81.36 30.58,71.3 87.03,153.93 128.59,226.82 64.38,112.93 40,105.48 209.02,9.87 183.64,-103.87 166.57,-59.69 34.68,-294.15 -20.12,-35.76 -56.58,-86.23 -66.26,-120.21 24.63,-25.76 168.71,-101.37 213.33,-127.74 48.33,-28.56 635.6,-354.05 650.1,-383.68 14.79,-39.06 -31.07,-94.09 -51.13,-130.65 -90.18,-164.33 -63.21,-139.79 -307.74,0.93l-438.49 252.55c-39.47,21.76 -74.12,41.58 -108.8,61.82 -33.36,19.47 -78.28,50.87 -110.91,63.28l-171.21 -298.66 295.05 -166.27c281.62,-159.57 636.06,-350.07 756.6,-641.92 199.62,-483.35 -225.86,-1080.01 -714.53,-1032.87 -260.78,25.16 -467.28,169.38 -653.63,274.54l-593.17 341.97c-211,129.08 -188.04,11.65 104.43,542.02 77.34,140.26 281.9,473.92 340.88,595.1zm-1449.21 1615.67l218.86 386.07c35.12,58.37 196.05,354.21 222.13,376.1 55.12,-26.57 128.15,-71.22 184.26,-105.06l571.29 -328.44c-26.29,-80.66 -144.67,-192.87 -194.47,-237.92 -68.73,-62.18 -172.84,-119.39 -281.07,-157.54 -176.33,-62.15 -387.74,-62.72 -567.57,0.18 -58.45,20.45 -104.94,49.6 -153.43,66.6zm-1053.48 -1819.79c28.08,59.51 71.18,124.33 106.08,185.11 40.11,69.85 69.73,122.86 110.28,190.43 38.75,64.56 71.99,127.26 109.5,191.37 29.47,50.37 80.75,151.74 111.65,186.51 162.47,-63.95 331.99,-297.56 393.77,-481.32 41.92,-124.69 52.92,-245.88 36.85,-385.91 -10.09,-87.89 -34.67,-177.07 -71.09,-253.73l-42.44 -71.51c-57.68,22.92 -133.71,75.58 -187.24,105.25 -63.57,35.23 -127.63,75.28 -190.25,110.76 -26.22,14.85 -353.29,196.27 -377.1,223.06zm4331.64 -2504.21c8.89,34.06 62.45,102.03 84.11,127.59 101.39,119.62 232.74,213.02 391.87,266.7 270.1,91.11 498.5,40.07 717.8,-70.52 -16.97,-47.31 -79.36,-140.19 -107.37,-190.42l-330.05 -570.7c-57.1,24.87 -131.88,73.89 -185.73,105.15l-570.63 332.21z"/>
   <path class="fil0" d="M7045.1 2561.14c-440.79,13.94 -810.93,90.19 -1164.85,243.66 -265.53,115.14 -685.09,398.12 -603.82,794.63 66.4,323.96 441.8,541.37 755.63,659.26 691.05,259.58 1732.04,248.94 2386.21,-62.22 263.88,-125.52 683.76,-384.23 605.28,-790.44 -37.03,-191.68 -182.49,-330.66 -292.56,-415.62 -427.74,-330.14 -1123.55,-447.06 -1685.88,-429.28zm-129.12 675.09c3.46,94.36 -5.04,865.47 6.25,895.94 26.72,72.12 169.61,57.43 248.46,57.73 407.6,1.5 383.51,17.06 381.99,-224.58 -1.28,-203.15 1.26,-406.62 0.33,-609.79 -0.46,-100.27 -0.21,-200.55 0.03,-300.83 0.11,-46.32 2.15,-101.28 -0.06,-146.61 -6.27,-128.39 -183.77,-94.6 -357.9,-94.67 -238.44,-0.09 -230.07,16.25 -438.92,168.36 -98.55,71.77 -401.8,240.89 -146.83,252.62 101.17,4.66 205.13,-2.96 306.65,1.83z"/>
   <path class="fil0" d="M9000.06 4710.01c-13.43,8.67 -84.88,78.88 -168.18,136.02 -777.24,533.14 -1850.31,558.8 -2737.32,309.65 -300.27,-84.34 -486.09,-196.01 -706.93,-374.91 -29.13,-23.6 -61.03,-61.35 -92.15,-79.76 -28.43,118.34 -45.12,197.46 -5.25,323.38 26.54,83.83 93.61,188.33 140.29,233.95 68.82,67.26 114.5,111.5 201.94,172.07 70.57,48.89 162.5,100.27 245.4,136.83 790.86,348.75 2033.02,352.61 2775.82,-127.26 148.26,-95.78 292.94,-234.68 350.59,-405.24 31.1,-92.02 46.57,-242.54 -4.21,-324.74z"/>
   <path class="fil0" d="M9000.06 4023.58c-35.1,25.61 -72.44,67.53 -165.35,134.25 -739.25,530.9 -1908.06,564.68 -2756.54,306.74 -553.92,-168.39 -704.24,-409 -779.15,-449.2 -90.86,202.06 9.05,408.82 132.6,558.95 82.72,100.51 289.36,239.46 447.76,308.06 752.06,325.69 1792.91,334.55 2534.77,1.01 245.39,-110.32 505.88,-288.53 591.88,-537.7 31.36,-90.88 43.26,-239.54 -5.99,-322.12z"/>
   <path class="fil0" d="M7130.04 5989.17c-382.19,-0.18 -737.24,-42.31 -1069.38,-157.31 -238.58,-82.6 -490.98,-206.72 -686.03,-363.32 -24.84,-19.95 -59.34,-59.85 -80.38,-72.11 -63.63,247.07 -9.46,371.5 142.73,554.7 87.51,105.34 285.25,238.22 449.5,306.61 419.35,174.61 806.22,244.79 1276.09,242.59 453.41,-2.21 901.16,-81.59 1256.33,-245.75 302.66,-139.89 717.57,-408.98 582.23,-867.41 -35.33,16.37 -50.01,44.98 -82.56,73.73 -205.05,181.11 -436.41,288.73 -703.13,378.88 -319.52,108 -717.71,149.56 -1085.4,149.39z"/>
   <path class="fil0" d="M3307.84 5290.6c11.18,19.42 173.18,159.21 195.15,243.92l-755.32 434.16 -155.38 -263.25 -172.92 94.51c10.21,35.81 160.66,297.68 202.56,331.63 129.41,104.88 270.67,-11.18 370.55,-67.76l2021.87 -1171.61c7.44,-119.83 7.37,-199.88 49.71,-301.8 30,-72.2 15.09,-63.23 -4.99,-139.52 -12.92,-49.1 -18.17,-98.34 -31.82,-147.1 -29.39,6.24 -1192.83,683.14 -1286.33,735.85l-433.08 250.97z"/>
   <path class="fil0" d="M2571.55 2398.7c31,65.14 72.67,125.53 107.69,187.81l327.89 573.8c77.32,-22.55 533.52,-304.79 621.4,-362.95 84.73,-56.07 200.23,-161.04 247.93,-248.32 70.68,-129.33 43.54,-272.61 -25.03,-386.71 -56.72,-94.38 -142.97,-182.96 -270.68,-216.94 -150.03,-39.93 -272.75,34.58 -379.78,90.75 -109.18,57.29 -214.34,119.85 -315.68,180.5 -101.67,60.84 -215.23,119.18 -313.73,182.07z"/>
   <path class="fil0" d="M5931.28 452.92l98.03 170.01c53.22,-28.07 106.73,-59.32 157.52,-88.83 45.48,-26.42 107.99,-67.7 154.54,-85.92l220.93 377.08c41.02,74.21 198.87,331.17 218.9,384.6 -44.25,13.74 -96.76,46.5 -152.69,66.29 -61.9,21.9 -116.58,30.81 -186.29,41.2 -3.87,29.15 40.48,91.46 58.2,122.89 61,108.19 459,813.35 499.52,867.88 95.96,10.82 235.79,0.84 341.64,6.82 107.27,6.06 223.95,23.11 325.04,25.95 -15.96,-45.68 -65.71,-118.24 -91.19,-162.72l-645.18 -1119.09c-128.12,-210.15 -244.48,-426.43 -369.29,-638.88 -33.24,-56.58 -55.03,-108.45 -108.02,-144 -54.88,-36.82 -131.13,-46.16 -197.15,-14.29l-324.52 191.01z"/>
  </g>
 </g>
</svg>
