<?xml version="1.0" encoding="UTF-8"?>
<!DOCTYPE svg PUBLIC "-//W3C//DTD SVG 1.1//EN" "http://www.w3.org/Graphics/SVG/1.1/DTD/svg11.dtd">
<!-- Creator: CorelDRAW -->
<svg xmlns="http://www.w3.org/2000/svg" xml:space="preserve" version="1.1" style="shape-rendering:geometricPrecision; text-rendering:geometricPrecision; image-rendering:optimizeQuality; fill-rule:evenodd; clip-rule:evenodd"
viewBox="0 0 3096.72 3092.06"
 xmlns:xlink="http://www.w3.org/1999/xlink"
 xmlns:xodm="http://www.corel.com/coreldraw/odm/2003">
 <defs>
  <style type="text/css">
   <![CDATA[
    .fil0 {fill:black}
   ]]>
  </style>
 </defs>
 <g id="Слой_x0020_1">
  <metadata id="CorelCorpID_0Corel-Layer"/>
  <g id="_2327972493264">
   <path class="fil0" d="M2953.22 2373.78c169.98,-72.31 140.25,-204.22 140.26,-408.86 0,-161.14 30.54,-301.85 -96,-385.7 -15.61,-10.34 -29.46,-12.62 -43.53,-24.54 -7.16,-107.06 -1.55,-241.31 -0.84,-350.93 0.86,-131.15 -4.88,-196.28 -79.22,-272.01 -29.33,-29.88 -53.96,-50.46 -103.57,-69.6 -84.29,-32.53 -59.01,14.16 -106.66,-71.09l-318.69 -556.29c-61.04,-108.31 -122.11,-236.34 -296.76,-234.75 -102.95,0.94 -177.56,63 -249.93,103.71 -148.41,83.47 -294.42,173.31 -443.5,258.35l-775.31 450.53c-72.03,42.62 -48.09,30.01 -147.5,30.22 -117.39,0.25 -216.48,-12.69 -303.46,47.73 -31.47,21.86 -66.63,56.4 -85.76,92.08 -23.55,43.92 -37.32,82.61 -38.2,142.02 -6.91,466.31 1.42,936.82 -0.07,1403.72 -0.66,206.55 -46.05,446.87 167.29,537.05 92.07,38.92 222.89,23.61 329.41,23.9l2105.57 0.1c135.02,0.15 193.2,-11.43 266.77,-86.79 74.26,-76.07 80.54,-140.72 79.64,-271.61 -0.81,-118.64 -1.05,-238.64 0.07,-357.25zm-1030.37 -1533.28c181.47,5.97 422.4,3.28 607.06,2.25 -14.32,-37.09 -121.45,-211.09 -150.96,-265.73l-456.1 263.47zm-1111.41 1.86c81.24,2.54 167.02,1.37 248.56,0.91 35.92,-0.2 58.81,-20.97 86.85,-36.82 25.2,-14.23 52.57,-30.99 77.83,-45.57l942 -550.6c-21.29,-54.83 -101.78,-90.4 -177.79,-54.39 -54.24,25.7 -438.41,253.82 -506.66,294 -110.89,65.28 -220.2,128.3 -334.23,194.65 -62.79,36.54 -297.01,168.23 -336.56,197.82zm1996.39 1990.16c4.58,-146.05 2.26,-294.07 2.26,-441.22 -68.49,-0.12 -403.7,8.14 -438.69,-5.71 -123.69,6.15 -264.38,-85.67 -330.58,-186.02 -161.18,-244.33 -32.74,-581.21 259.42,-644.85 121.35,-26.44 389.6,4.34 512.41,-11.59 0,-84.75 11.44,-426.31 -12.83,-477.99 -29.28,-62.34 -74.84,-82.32 -163.41,-82.59 -83.96,-0.26 -168.14,-0.33 -252.09,0.06l-1996.83 0.06c-87.29,0 -150.66,-11.55 -202.92,42.89 -54.45,56.73 -39.1,123.27 -39.6,212.81 -2.79,495.97 3.38,997.39 -0.08,1492.68 -1.67,239.23 82.33,216.78 282.15,217.59 661.61,2.7 1335.22,2.7 1996.83,0 82.1,-0.33 165.47,1.55 247.35,-0.15 69.7,-1.44 135.37,-52.86 136.62,-115.96zm-464.32 -1142.17c-333.02,66.38 -290.99,536.52 30.7,555.65 109.07,6.48 240.03,1.37 351.15,0.75 181.09,-1.02 227.3,29.1 227.86,-118.71 0.44,-116.83 0.64,-234.24 -0.06,-351.05 -0.36,-60.17 -22.85,-90.89 -84.35,-91.29 -105.46,-0.69 -467.01,-6.96 -525.3,4.66z"/>
   <path class="fil0" d="M1367.41 841.2l216.21 1.87c71.25,0 57.32,-0.02 108.22,-30.24l262.52 -152.68c58.67,-33.02 118.27,-68.02 175.36,-101.56l176.57 -106.13 -65.72 -118.23 -438.5 252.71c-66.72,40.71 -390.07,222.52 -434.67,254.26z"/>
   <path class="fil0" d="M2359.15 1829.47c-178.66,42.18 -117.69,315.68 64.18,273.24 177.63,-41.45 117.79,-316.2 -64.18,-273.24z"/>
  </g>
 </g>
</svg>
