<?xml version="1.0" encoding="UTF-8"?>
<!DOCTYPE svg PUBLIC "-//W3C//DTD SVG 1.1//EN" "http://www.w3.org/Graphics/SVG/1.1/DTD/svg11.dtd">
<!-- Creator: CorelDRAW -->
<svg xmlns="http://www.w3.org/2000/svg" xml:space="preserve" version="1.1" style="shape-rendering:geometricPrecision; text-rendering:geometricPrecision; image-rendering:optimizeQuality; fill-rule:evenodd; clip-rule:evenodd"
viewBox="0 0 559.45 1350.29"
 xmlns:xlink="http://www.w3.org/1999/xlink"
 xmlns:xodm="http://www.corel.com/coreldraw/odm/2003">
 <defs>
  <style type="text/css">
   <![CDATA[
    .fil0 {fill:black}
    .fil1 {fill:black}
   ]]>
  </style>
 </defs>
 <g id="Слой_x0020_1">
  <metadata id="CorelCorpID_0Corel-Layer"/>
  <g id="_3066691870224">
   <path class="fil0" d="M74.18 298.28c-30.62,3.25 -50.11,20.48 -61.61,38.68 -16.3,25.8 -12.05,56.52 -12.12,89.64 -0.14,67.01 -0.24,134.12 -0.01,201.13 0.46,134.01 0.34,268.24 0.01,402.25 -0.16,67.01 -0.27,134.12 -0.01,201.13 0.13,34.7 -2.89,60.55 15.8,84.65 13.69,17.66 33.36,33.15 67.55,33.57 98.6,1.21 201.63,0.02 301.07,0 30.17,-0 71.87,2.4 100.65,-0.42 30.29,-2.98 50.2,-20.62 61.41,-38.58 16.25,-26.03 12,-56.42 12.1,-89.75l-0 -603.38c0.08,-67.03 0.2,-134.1 0.01,-201.13 -0.1,-34.39 2.37,-60.95 -15.84,-84.69 -13.54,-17.65 -33.71,-33.09 -67.61,-33.54 -6.26,-0.08 -386.06,-1.2 -401.39,0.43zm-40.89 200.62l0.05 686.18 492.88 -0.43c-1.07,-230.37 0.2,-463.01 -0.07,-693.63l0.01 -28.26c-50.99,-2.42 -145.63,-0.61 -200.46,-0.69l-292.45 -0 0.04 36.84zm0.06 -69.71l492.84 0.05c0.18,-25.4 4.28,-58.78 -8.85,-77.28 -15.41,-21.71 -32.52,-21.48 -65.44,-21.32l-344.41 0.02c-32.96,0.15 -48.97,-0.72 -64.86,20.55 -13.75,18.41 -9.41,52.08 -9.27,77.98zm-0.11 792.72c0.18,26.32 -3.4,56.24 8.82,73.32 18.65,26.07 44.6,21.1 75.93,21.31l354.93 0.05c33.88,0.13 53.33,-20.88 53.29,-55.24l-0.08 -43.36c-163.5,-0.45 -329.91,1.18 -492.92,-0.05l0.03 3.98z"/>
   <g>
    <path class="fil0" d="M11.75 68.28c12.64,19.83 39.5,5.03 57.42,-1.02 21.4,-7.22 40.15,-12.61 64.03,-18.24 98.85,-23.32 210.71,-20.81 308.09,3.5 21.8,5.44 43.57,12.17 62.42,19.38 9.28,3.55 20.08,9.01 32.68,4.95 9.42,-3.04 16.73,-11.21 12.12,-20.6 -6.79,-13.84 -97.04,-36.5 -119.47,-41.02 -127.96,-25.8 -257.03,-18.8 -376.15,20.93 -17.29,5.77 -52.62,14.13 -41.15,32.12z"/>
    <path class="fil0" d="M90.21 144.17c8.42,16.65 24.97,9.87 40.6,3.11 78.14,-33.79 180.09,-39.06 263.57,-12.68 17.3,5.47 28.42,10.51 43.75,16.69 18.97,7.65 38.78,-4.95 30.71,-20.27 -4.48,-8.51 -25.17,-15.24 -38.05,-19.93 -99.78,-36.27 -217.42,-35.18 -314.29,5.21 -13.13,5.47 -34.48,11.66 -26.29,27.86z"/>
    <path class="fil0" d="M167.85 215.65c7.93,23.73 33.46,1.85 52.18,-5.22 19.84,-7.49 43.19,-12.2 66.78,-11.02 23.21,1.16 43.92,6.54 62.63,15.11 7.64,3.5 20.38,12.38 28.03,12 8.59,-0.43 46.15,-22.84 -35.77,-50.27 -52.03,-17.42 -112.58,-11.08 -159.79,15.8 -8.22,4.68 -18.35,10.74 -14.05,23.59z"/>
   </g>
   <path class="fil0" d="M222.58 364c-11.2,2.62 -16.8,16.16 -9.11,26.26 6.57,8.64 24,6.2 37.31,6.13 17.72,-0.09 73.08,2.34 86.26,-0.55 11.01,-2.41 16.5,-16.44 8.88,-26.23 -6.65,-8.55 -23.95,-6.17 -37.3,-6.12 -16.52,0.06 -74.58,-2.16 -86.03,0.52z"/>
   <path class="fil0" d="M275.05 1252.11c-23.12,8.65 -8.92,37.04 10.2,30.54 18.12,-6.15 10.39,-38.24 -10.2,-30.54z"/>
   <path class="fil1" d="M175.18 816.39c-13.63,-0.04 -23.4,-2.7 -23.99,5.59 -0.4,5.66 -0.33,24.88 1.13,28.24 5.47,3.73 16.37,0.86 23.3,2.3 -1.09,9.71 1.11,34.84 -0.54,42.32 -5.18,-0.41 -17.49,-0.71 -21.77,1 -3.29,4.89 -2.56,28.69 -1.32,32.8 6.3,4.22 16.67,0.95 23.88,2.51 -1.09,9.23 -0.17,21.18 -0.22,31.23 -0.07,15.57 -2.16,13.34 21.1,13.52 25.27,0.2 20.86,3.77 21.19,-28.46 0.05,-4.92 -0.72,-12.33 0.31,-16.44 4.1,-1.2 23.57,-0.43 29.78,-0.5 6.72,-0.07 87.14,1.26 90.42,-0.94 3.87,-3.17 2.4,-11.62 2.51,-16.62 0.47,-22.45 1.8,-18.29 -32,-18.31l-60.61 -0.01c-5.4,-0.1 -10.18,-0.12 -14.99,-0.09 -4.63,0.03 -11.17,0.6 -15.29,-0.07l0.09 -41.24 40.57 0.39c38.77,0.28 86.95,1.7 116.91,-21.38 49.62,-38.23 41.15,-125.6 -12.39,-149.93 -28.57,-12.98 -58.63,-10.36 -84.26,-10.59l-82.01 0.02c-29.62,0.78 -20.21,-10.04 -21.57,62.5 -0.36,19.18 0.92,66.05 -0.21,82.15zm45.25 -110.49c-0.71,9 0.04,18.15 -0.06,27.09l-0.3 82.7c9.79,2.39 76.89,0.28 90.05,-0.53 12.69,-0.79 31.77,-4.95 42.4,-11.44 15.74,-9.61 21.75,-26.84 21.45,-43.5 -0.25,-13.78 -4.07,-28.77 -15.8,-40.43 -13.77,-13.7 -31.73,-13.29 -46.85,-13.89 -15.42,-0.61 -30.73,-0.39 -45.51,-0.15 -14.82,0.25 -30.78,-0.52 -45.39,0.14z"/>
  </g>
 </g>
</svg>
