<?xml version="1.0" encoding="UTF-8"?>
<!DOCTYPE svg PUBLIC "-//W3C//DTD SVG 1.1//EN" "http://www.w3.org/Graphics/SVG/1.1/DTD/svg11.dtd">
<!-- Creator: CorelDRAW -->
<svg xmlns="http://www.w3.org/2000/svg" xml:space="preserve" version="1.1" style="shape-rendering:geometricPrecision; text-rendering:geometricPrecision; image-rendering:optimizeQuality; fill-rule:evenodd; clip-rule:evenodd"
viewBox="0 0 4145.49 2316"
 xmlns:xlink="http://www.w3.org/1999/xlink"
 xmlns:xodm="http://www.corel.com/coreldraw/odm/2003">
 <defs>
  <style type="text/css">
   <![CDATA[
    .fil0 {fill:black}
    .fil5 {fill:#0C7F3F}
    .fil1 {fill:#1C85C4}
    .fil3 {fill:#535AA5}
    .fil6 {fill:#5AB443}
    .fil8 {fill:#8C4D9A}
    .fil7 {fill:#D51657}
    .fil4 {fill:#EA7130}
    .fil9 {fill:#F0F0F1}
    .fil2 {fill:#F2AD2C}
   ]]>
  </style>
 </defs>
 <g id="Слой_x0020_1">
  <metadata id="CorelCorpID_0Corel-Layer"/>
  <g id="_2382743534864">
   <path class="fil0" d="M2971.63 1077c38.33,-198.08 246.55,-153.82 375.4,-159.39l87.86 -166.31c-316.03,-2.29 -488.35,-24.78 -610.08,202.85 -108.2,202.34 -48.72,488.71 120.73,572.16 225.04,110.84 490.64,-21.37 497.65,-239.98 4.2,-131 -64.32,-216.64 -150.72,-251.6 -129.93,-52.57 -231.83,-15.98 -320.85,42.26zm111.89 87.57c-146.02,28.39 -112.42,275.08 62.06,236.03 129.34,-28.95 117.67,-270.98 -62.06,-236.03z"/>
   <polygon class="fil0" points="3538.76,1079.46 3538.83,1536.55 3742.38,1537.84 3743.93,1134.01 3939.84,1135.07 3941.11,1537.84 4143.47,1537.74 4145.49,958.67 3538.31,960.66 "/>
   <path class="fil0" d="M2688.07 1504.9l-73.53 -138.11c-11.56,1.96 -287.44,102.89 -285.94,-115.99 1.05,-152.38 172.93,-158.75 285.11,-103.33 23.39,-30.65 70.29,-112.43 83.61,-149.06 -114.82,-59.63 -227.89,-82.35 -365.08,-22.94 -100.78,43.64 -186.39,128.59 -192.75,266.71 -12.61,273.78 314.62,390.05 548.59,262.72z"/>
   <path class="fil1" d="M294.8 1015.62c44.79,21.63 206.26,117.04 235.91,145.23 43.55,15.61 97.24,53.79 139.69,80.2 47.6,29.62 90.52,54.65 136.25,82.38 33.09,27.92 105.16,65.64 143.29,89.09 32.91,20.23 118.4,68.35 139.83,90.7 33.85,11.53 235.51,134.13 254.41,157.95l543.23 -1.19 -797.94 -497.6c-40.35,-16.67 -105.67,-60.58 -146.37,-85.94 -44.61,-27.8 -97.56,-57.38 -139.14,-85.36 -132.25,-82.64 -260.68,-155.97 -392.5,-239.71 -63.79,-40.52 -129.44,-78.01 -195.9,-119.42 -56.26,-35.06 -147.34,-96.69 -205.32,-122.09 17.1,42.73 45.7,90.43 70.01,130.97 25.72,42.9 45.87,84.74 70.92,127.54 38.67,66.05 99.61,195.42 143.62,247.25z"/>
   <path class="fil2" d="M803.97 991.07c41.58,27.98 94.53,57.56 139.14,85.36 40.69,25.36 106.02,69.27 146.37,85.94l0.9 -12.54 0.13 -333.07 -3.31 -310.65c-36.08,-83.47 -91.98,-164.64 -136.38,-248.85 -27.61,-52.35 -124.01,-202.91 -132.68,-250.87 -15.25,-10.63 -6.88,-8.38 -13.07,9.72l-1.08 974.96z"/>
   <path class="fil3" d="M4.95 1810.95c92.3,-168.35 195.54,-335.24 281.87,-504.31l5.96 -284.44c0.23,-3.45 1.08,-4.49 2.02,-6.58 -44.01,-51.83 -104.96,-181.2 -143.62,-247.25 -25.05,-42.8 -45.2,-84.65 -70.92,-127.54 -24.31,-40.54 -52.91,-88.24 -70.01,-130.97 -10.78,-8.62 -8.2,554.51 -7.2,642.49 1.27,111.09 -0.59,222.56 -0.23,333.66 0.3,91.81 -7.77,245.03 2.13,324.95z"/>
   <path class="fil4" d="M1087.19 506.11c20.4,5.64 234.39,128.19 259.68,160.09 12.29,-2.32 449.89,-12.75 503.15,-3.62l22.48 7.12c1.76,0.63 4.74,1.91 6.83,3.33l13.32 -13.71c-140.51,-96.08 -626.21,-382.8 -801.72,-488.01 -92.51,-55.46 -178.65,-111.23 -272.82,-164.92 8.67,47.96 105.08,198.52 132.68,250.87 44.41,84.21 100.31,165.38 136.38,248.85z"/>
   <path class="fil5" d="M1099.06 1808.62c-54.71,78.38 -101.03,166.91 -145.84,250.23 -43.28,80.46 -109.43,175.69 -140.84,256.98 34.95,-13.43 101.58,-58.61 137,-80.55l805.66 -492.72c42.89,-26.81 91.04,-53.64 132.39,-82.6l-543.23 1.19 -245.12 147.46z"/>
   <path class="fil6" d="M812.37 2315.83c31.42,-81.29 97.56,-176.52 140.84,-256.98 44.82,-83.32 91.13,-171.85 145.84,-250.23l-9.29 -305.41c-21.43,-22.35 -106.93,-70.46 -139.83,-90.7 -38.14,-23.45 -110.21,-61.17 -143.29,-89.09l-0.89 7.32c-7.66,163.3 -0.45,341.92 -0.56,506.94 -0.06,84.14 -0.14,168.37 -0.58,252.5 -0.17,32.07 -4.84,232.24 7.76,225.65z"/>
   <path class="fil7" d="M1090.5 816.76l-0.13 333.07 788.96 -476.81c-2.1,-1.43 -5.07,-2.7 -6.83,-3.33l-22.48 -7.12c-53.26,-9.12 -490.87,1.31 -503.15,3.62 -75.3,35.75 -184.88,126.13 -256.37,150.56z"/>
   <path class="fil8" d="M286.82 1306.64c-86.33,169.07 -189.57,335.95 -281.87,504.31 56.5,-20.66 145.47,-84.46 202.17,-119.2 63.92,-39.15 128.24,-78.72 196.74,-119.22l401.9 -241.78 0.89 -7.32c-45.73,-27.73 -88.65,-52.75 -136.25,-82.38 -42.45,-26.42 -96.14,-64.6 -139.69,-80.2 -31.7,25.68 -204.41,131.85 -243.89,145.79z"/>
   <path class="fil9" d="M1090.5 816.76c71.49,-24.43 181.07,-114.81 256.37,-150.56 -25.29,-31.9 -239.28,-154.45 -259.68,-160.09l3.31 310.65z"/>
   <path class="fil9" d="M1099.06 1808.62l245.12 -147.46c-18.9,-23.82 -220.56,-146.42 -254.41,-157.95l9.29 305.41z"/>
   <path class="fil9" d="M286.82 1306.64c39.49,-13.94 212.19,-120.11 243.89,-145.79 -29.65,-28.19 -191.12,-123.61 -235.91,-145.23 -0.93,2.1 -1.79,3.14 -2.02,6.58l-5.96 284.44z"/>
  </g>
 </g>
</svg>
