<?xml version="1.0" encoding="UTF-8"?>
<!DOCTYPE svg PUBLIC "-//W3C//DTD SVG 1.1//EN" "http://www.w3.org/Graphics/SVG/1.1/DTD/svg11.dtd">
<!-- Creator: CorelDRAW -->
<svg xmlns="http://www.w3.org/2000/svg" xml:space="preserve" version="1.1" style="shape-rendering:geometricPrecision; text-rendering:geometricPrecision; image-rendering:optimizeQuality; fill-rule:evenodd; clip-rule:evenodd"
viewBox="0 0 4232.87 4040.47"
 xmlns:xlink="http://www.w3.org/1999/xlink"
 xmlns:xodm="http://www.corel.com/coreldraw/odm/2003">
 <defs>
  <style type="text/css">
   <![CDATA[
    .fil0 {fill:#000000}
   ]]>
  </style>
 </defs>
 <g id="Слой_x0020_1">
  <metadata id="CorelCorpID_0Corel-Layer"/>
  <path class="fil0" d="M1548.33 1150.06c-36.53,42.76 -31.11,109.04 -85.68,152.71 -42.17,33.74 -142.73,32.16 -204.92,37.79 -150.47,13.62 -299.07,26.86 -448.41,40.58l-668.6 60.4c-88.34,7.88 -105.78,30.07 -138.01,93.45 -8.8,65.04 3.77,100.87 38.93,132.25 68.28,60.94 562.01,481.28 618.01,516.18 160.55,100.04 369.83,51.16 568.33,32.76 196.98,-18.25 393.68,-36.66 590,-55.34 87.39,-8.31 231.39,-44.58 280.07,17.43 23.62,30.09 33.92,84.04 7.84,122.85 -27.15,40.39 -797.08,487.47 -902.85,551.52 -160.24,97.02 -233.53,144.45 -284.89,363.03 -41.08,174.84 -83.6,352.41 -124.3,529.15 -21.15,91.84 -65.68,189.33 2.96,257.06 81.08,80 155.92,17.11 223.56,-23.57 272.59,-163.93 532.88,-334.39 802.68,-498.47 70.36,-42.79 132.32,-82.98 201.67,-125.35 103.61,-63.31 148.66,-21.2 230.45,30.7 327.04,207.52 672.92,411.7 1000.28,620.84 105.4,67.34 154,27.16 210.08,-45.2 17.68,-93.27 -81.9,-443.84 -108.64,-557.79 -43.76,-186.43 -87.83,-370.53 -130.98,-557.52 -72.68,-314.97 -105.16,-280 109.38,-455.76l279.39 -235.66c27.41,-22.35 68.99,-64.38 95.92,-78.35 48.49,-48.53 103.37,-88.21 156.26,-135.66 95.59,-85.75 221.71,-181.38 316.88,-267.66 60.03,-54.42 69.7,-140.96 2.96,-198.63 -49.37,-42.67 -172.19,-38.61 -246.87,-45.56l-1071.61 -97.47c-110.93,-9.81 -123.78,-41.74 -161.05,-130.67 -57.36,-136.84 -114.23,-274.38 -173.13,-411.43l-260.25 -616.67c-14.4,-34.36 -26.66,-68.64 -43.52,-102.54 -26.05,-52.36 -33.99,-38.87 -75.41,-68.25 -83.68,-6.68 -126.27,13.62 -155.22,71.18 -61.37,122.01 -255,606.33 -323.96,768.52 -38.01,89.39 -101.76,220.47 -127.34,309.14z"/>
 </g>
</svg>
