<?xml version="1.0" encoding="UTF-8"?>
<!DOCTYPE svg PUBLIC "-//W3C//DTD SVG 1.1//EN" "http://www.w3.org/Graphics/SVG/1.1/DTD/svg11.dtd">
<!-- Creator: CorelDRAW -->
<svg xmlns="http://www.w3.org/2000/svg" xml:space="preserve" width="95.2513mm" height="95.2484mm" version="1.1" style="shape-rendering:geometricPrecision; text-rendering:geometricPrecision; image-rendering:optimizeQuality; fill-rule:evenodd; clip-rule:evenodd"
viewBox="0 0 401.84 401.83"
 xmlns:xlink="http://www.w3.org/1999/xlink"
 xmlns:xodm="http://www.corel.com/coreldraw/odm/2003">
 <defs>
  <style type="text/css">
   <![CDATA[
    .str0 {stroke:black;stroke-width:21.09;stroke-miterlimit:22.9256}
    .fil0 {fill:none}
   ]]>
  </style>
 </defs>
 <g id="Слой_x0020_1">
  <metadata id="CorelCorpID_0Corel-Layer"/>
  <path class="fil0 str0" d="M69.03 11.46c-11.17,3.24 -22.58,16.76 -29.23,23.73 -57.03,59.85 -20.12,129.94 21.02,185.09 13.38,17.94 23.88,28.14 37.24,43.12l39.42 39.5c44.87,40.14 109.05,97.83 176.57,87.12 32.09,-5.09 50.79,-26.11 65.98,-41.39 28.04,-28.23 -3.17,-49.7 -18.2,-64.69 -9.05,-9.03 -16.98,-16.98 -26.04,-26.05 -7.08,-7.08 -17.49,-21.02 -33.66,-20.36 -25.3,1.03 -42.16,45.48 -62.51,44.35 -19.01,-1.05 -95.67,-84.99 -110.28,-103.32 -11.68,-14.66 -14.46,-19.63 -0.49,-33.5 21.85,-21.71 48.11,-38.97 28.83,-64.77 -6.01,-8.04 -18.91,-19.42 -26.54,-27.02 -20.17,-20.09 -40.23,-48.12 -62.09,-41.79z"/>
 </g>
</svg>
