<?xml version="1.0" encoding="UTF-8"?>
<!DOCTYPE svg PUBLIC "-//W3C//DTD SVG 1.1//EN" "http://www.w3.org/Graphics/SVG/1.1/DTD/svg11.dtd">
<!-- Creator: CorelDRAW -->
<svg xmlns="http://www.w3.org/2000/svg" xml:space="preserve" version="1.1" style="shape-rendering:geometricPrecision; text-rendering:geometricPrecision; image-rendering:optimizeQuality; fill-rule:evenodd; clip-rule:evenodd"
viewBox="0 0 4197.47 3626.44"
 xmlns:xlink="http://www.w3.org/1999/xlink"
 xmlns:xodm="http://www.corel.com/coreldraw/odm/2003">
 <defs>
  <style type="text/css">
   <![CDATA[
    .fil0 {fill:white}
   ]]>
  </style>
 </defs>
 <g id="Слой_x0020_1">
  <metadata id="CorelCorpID_0Corel-Layer"/>
  <path class="fil0" d="M1658.32 2415.12c48.22,58.54 128.76,106.67 187.68,151.21 392.42,296.67 817.69,639.71 1202.84,921.3 89.39,65.36 303.97,257.04 460.86,33.36 46.2,-65.86 167.12,-760.02 190.59,-871.68l466.59 -2353.42c17.52,-88.67 65.63,-219.41 -13.33,-273.05 -78.58,-53.38 -213.55,-0.13 -285.44,27.82l-2533.5 993.67c-338.11,130.54 -672.5,260.74 -1008.37,394.96 -146.15,58.41 -454.15,147.09 -268.27,331.93 74.11,73.69 379.23,155.8 508.63,199.41 80.45,27.11 474.4,174.42 519.99,163.05l1301.71 -822.33c226.61,-137.01 920.57,-600.94 1074.94,-682.09 161.62,-84.97 137.01,37.18 50.1,115.45l-925.28 831.67c-32.64,32.64 -59.13,46.32 -92.14,79.04 -148.34,146.99 -428.26,371.43 -557.58,503.82l-279.98 255.87z"/>
 </g>
</svg>
