<svg class="slide_3__tg_icon" xmlns="http://www.w3.org/2000/svg" xml:space="preserve" version="1.1" style="shape-rendering:geometricPrecision; text-rendering:geometricPrecision; image-rendering:optimizeQuality; fill-rule:evenodd; clip-rule:evenodd" viewBox="0 0 15569.4 11362.95" xmlns:xlink="http://www.w3.org/1999/xlink">
    <defs>
    <style type="text/css">
    
        .slide3_paysys_fil0 {fill:#000000}
        .slide3_paysys_fil1 {fill:#000000}
    
    </style>
    </defs>
    <g>
    <g id="_1780304639616">
    <g>
        <path class="slide3_paysys_fil0" d="M14975.84 4169.86l-3.34 -802.05c-7.37,-261.08 -4.84,-541.09 -3.33,-804.22l-5.76 -801.96c-8.71,-267.67 -3.13,-534.51 -11.11,-807.15 -3.95,-134.84 -5.86,-266.33 -16.86,-396.87 -11.11,-131.8 -28.12,-258.23 -127.14,-354.89 -244.84,-239 -497.94,-203.44 -829.12,-197.28 -266.76,4.96 -540.41,-6.71 -804.19,2.38l-809.36 5.22c-535.42,-2.57 -1068.22,16.43 -1604.37,13.46 -536.55,-2.97 -1076.75,18.06 -1610.02,17.15 -264.25,-0.45 -539,4.8 -800.23,12.9 -107.22,3.33 -253.77,82.07 -338.9,171.57 -47.55,50 -159.91,258.61 -158.12,334.77 13.28,561.7 -0.87,1149.8 9.09,1716.02 9.36,531.86 9.31,1070.09 16.02,1602.8 3.5,278.34 -6.9,344.72 82.41,569.98 22.52,56.8 -32.2,133.1 -76.85,233.87 -70.89,160.01 -141.67,319.95 -211.91,479.91 -72.23,164.5 -150.53,299.15 -125.55,456.16 19.9,125.01 66.2,227.94 162.94,341.46 72.14,84.65 82.59,79.1 193.65,130.1l3174.54 1452.43c256.11,117.59 2228.64,1037.47 2408.29,1067.81 108.88,18.39 283.65,-61.28 361.08,-110.06 131.33,-82.72 188.45,-227.13 263.02,-381.27 77.42,-160.02 152.52,-321.25 227.46,-482.72 300.7,-647.9 598.24,-1297.93 894.4,-1947.93 95.92,-210.53 362.01,-740.32 334.9,-927.88 -15.11,-104.51 -79.94,-258.45 -167.27,-340.32 -104.82,-98.26 -285.78,-184.97 -424.36,-253.4zm-973.72 -1760.45l-9.27 176.67c48.75,18.91 128.46,17.6 178.63,19.52 29.24,1.12 50.03,1.93 82.42,1.58 53.39,-0.57 150.91,31.33 82.17,-204.83 -51.66,-13.94 -284.15,-4.79 -333.95,7.05zm-1064.73 -302.1c-30.17,79.1 -4.99,130.57 -13.22,197.76 58.21,8.71 342.85,5.92 390.23,-7.26 27.51,-54.72 17.8,-153.88 8.38,-198.54l-385.39 8.04zm0.83 -140.72c72.7,64.85 527.85,15.03 640.06,30.12 15.45,-53.45 2.29,-148.53 3.42,-199.87 -54.21,-14 -452.59,-11.73 -523.72,30.73 -41.8,24.95 -104.16,76.64 -119.76,139.02zm765.7 753.72c-26.01,59.98 -5.09,134.71 -10.21,193.41 96.84,10.19 265.21,3.37 359.34,-2.85 149.35,-9.86 216.77,-8.41 281.98,-194.79 -33.21,-23.25 -257.31,-7.33 -316.3,-7.93 -65.61,-0.66 -268.53,-3.27 -314.8,12.16zm-3.41 -927.81c-21.9,59.61 -16.37,162.8 7.58,200.3l264.94 4.6c26.73,47.78 23.57,225.31 24.75,291.67 86.75,22.45 257.46,7.33 347.86,13.73 22.88,-77.75 4.72,-181.17 -4.64,-255.7 -10.08,-80.22 -17.3,-169.52 -109.49,-219.37 -122.05,-66 -403.52,-27.47 -531.01,-35.22zm-262.14 319.05l-8.19 272.33c-53.24,24.76 -429.11,32.73 -502.4,28.89 -7.87,34.06 -4.34,167.87 3.35,197.15 82.05,3.8 162.23,2.35 247.4,2.23 56.37,-0.08 216.58,-19.21 256.7,21.95 20.61,89.98 -154.16,77.82 -225.57,78.84 -76.42,1.09 -209.63,6.58 -281.36,-3.52 4.1,40.22 46.32,118.75 88.01,148.44 88.19,62.78 278.18,61.33 383.85,58.33 31.59,-0.89 57.22,-1.66 88.12,-2.46 17.35,-0.44 30.07,-0.66 46.34,-1.92l47.71 -8.49c18.05,-82.98 -6.01,-214.35 21.27,-287.17 69.13,-8.17 229.94,-0.67 283.73,-20.61 18.03,-85.98 8.6,-410.69 -0.96,-495.73 -61.85,-11.66 -399.7,-3.54 -448.01,11.74zm1290.77 4116.91l-6024.78 -2766.88c-46.96,80.53 -551.74,1195.89 -605.29,1312.49 -100.65,219.16 -200.35,439.08 -302.34,657.58 -46.99,100.66 -11.96,201.51 17.26,268.29 52.36,119.66 77.3,133.48 219.03,198.55l5276.48 2423.22c123.17,56.57 125.14,81.38 289.15,44.27 73.25,-16.57 156.52,-65.66 212.52,-163.36 114.1,-199.03 215.23,-440.6 312.66,-651.74 51.67,-111.96 576.75,-1237.64 605.31,-1322.44zm-4730.89 -4067.45l-281.92 -122.42c-90.23,-38.44 -128.86,-36.08 -201.3,-17.99 -168.42,42.05 -262.81,212.5 -332.75,394.64l-9.64 30.85 6022.87 2765.73 57.49 -118.08c77.93,-169.69 106.65,-297.51 42.65,-413.53 -36.78,-66.66 -55.66,-101.2 -147.24,-146.61l-2492.47 -1159.98c-879.38,-409.32 -1775.61,-811.52 -2657.69,-1212.61z"></path>
        <path class="slide3_paysys_fil0" d="M8226.09 5055.69l2666.93 1224.79 185.11 -402.36 -8.49 -3.89 -2658.79 -1221.05c-33.88,46.79 -150.31,327.47 -184.76,402.51z"></path>
        <path class="slide3_paysys_fil0" d="M8536.06 4381.02l1801.02 830.86 172.15 -395.77c-0.59,-0.27 -1742.97,-822.11 -1792.41,-829.06l-180.76 393.97z"></path>
        <path class="slide3_paysys_fil0" d="M10647.49 5148.26l-76.28 170.5 1378.26 633.57 172.89 -396.62c-418.87,-196.69 -838.46,-400.05 -1263.48,-582.75 -104.24,-44.81 -88.58,-92.1 -211.38,175.3z"></path>
    </g>
    <g>
        <path class="slide3_paysys_fil1" d="M208.22 9142.09c45.59,-76.34 21.31,-286.11 26.7,-438.46 12.16,-343.94 121.87,-893.21 379.97,-1072.68 249.35,-173.39 472.43,-26.09 709.39,69.18l4780.19 1923.76c408.12,166.44 986.94,442 1516.01,402.36 306.77,-22.99 482.65,-146.17 662.18,-289.97 297.73,-238.47 846.53,-607.27 1105.06,-824.33 269.84,-226.54 95.5,-450.09 -136.18,-569.97 -259.12,-134.09 -2359.87,-970.66 -2709.92,-1116.54 -903.47,-376.5 -1808.74,-751.37 -2713.92,-1112.29 -502.24,-200.26 -883.94,-461.88 -1483.57,-177.26l-1230.94 682.47c-536.99,320.08 -888.74,373.93 -1039.19,874.56 -80.52,267.93 -85.07,576.99 -61.82,873.26 10.54,134.27 37.03,291.59 65.61,418.57 13.19,58.61 65.39,264.84 99.44,319.64 1.93,3.11 4.69,7.09 6.71,9.98 2.05,2.92 5.58,6.97 7.54,9.53l16.71 18.2zm7156.02 40.7c-266.27,102.97 -137.64,498.53 164.72,410.9 255.01,-73.9 148.43,-532.01 -164.72,-410.9zm-2187.16 -1186.53c39.25,43.14 370.91,164.7 456.98,201.34 120.29,51.21 140.49,7.93 221.98,-52.05 55.07,-40.53 163.32,-93.17 173.12,-165.37 -55.82,-46.88 -365.79,-160.04 -460.22,-200.45 -124.82,-53.42 -137.36,-6.62 -218.2,53.12 -52.84,39.05 -162.42,94.85 -173.66,163.41zm-899.15 -369.79c42.93,51.29 405.89,180.42 501.09,220.11 145.3,60.56 131.32,83.26 253.31,-10.04 55.97,-42.81 178.26,-107.11 198.84,-177.92 -42.87,-53 -180.26,-90.37 -244.52,-116 -377.57,-150.51 -367.24,-205.64 -516.32,-91.46 -83.85,64.22 -177.67,110.87 -192.4,175.3zm1408.01 -16.08c30.74,48.69 147.55,79.9 239.91,118.14 347.01,143.68 284.72,162.09 484.04,6.39 64.54,-50.41 172.5,-106.22 193.33,-173.42 -42.16,-38.4 -400.16,-182.72 -490.44,-214.37 -108.26,-37.95 -210.88,75.02 -338.13,170.36 -48.12,36.06 -71.25,37.45 -88.71,92.89zm-1101.11 818.64c38.62,31.91 431.79,189.86 508.38,214.12 101.46,32.13 204.8,-86.97 328.48,-176.5 22.55,-16.33 32.47,-19.06 55.75,-40.21 52.63,-47.79 22.29,2.42 40.35,-60.41 -26.77,-35.72 4.37,-10.09 -46.29,-38.08l-468.84 -191.69c-81.14,-22.32 -403.25,238.99 -417.84,292.76zm1385.08 -112.68c36.14,50.11 455.29,204.47 543.19,240.06 132.77,53.76 179.27,108.49 289.16,20.51 105.66,-84.6 198.77,-121.5 209.07,-194.81 -49.03,-44.63 -458.97,-199.24 -552.41,-237.81 -151.65,-62.6 -156.05,-102.57 -277.15,-10.82 -62.85,47.61 -180.3,114.42 -211.85,182.88zm-1182.94 -1052.11c176.76,65.99 366.99,146.44 545.98,221.49 147.63,61.91 161.99,8.88 264.32,-65.23 57.7,-41.79 183.63,-116.41 207.39,-179.89 -45.65,-56.95 -450.81,-201.96 -558.72,-247.47 -135.46,-57.12 -153.55,-5.62 -250.06,67.04 -114.24,86.02 -199.84,119.51 -208.92,204.06zm-1103.21 776.04c23.38,73.64 121.59,88.62 260.25,143.06 449.22,176.35 351.9,195.73 552.76,49.87 60.34,-43.81 201.7,-129.98 222.41,-188.73 -43.03,-64.1 -178.3,-94.06 -253.67,-125.32 -441.54,-183.07 -373.3,-185.94 -556.16,-48.44 -62.92,47.31 -192.46,130.92 -225.59,169.55zm2798.44 -108.34c39.67,64.18 485,220.89 585.13,263.23 178.2,75.35 148.13,73.03 287.8,-29.52 38,-27.9 81.18,-59.89 120.67,-88.54 44.05,-31.97 94.43,-53.03 103.89,-113.01 -41.55,-44.51 -487.2,-215.24 -577.43,-250.72 -185.31,-72.87 -128.84,-91.94 -283,25.06 -62.61,47.52 -210.68,132.68 -237.05,193.51zm-1091.5 815.84c53.01,53.3 481.62,206.64 597.74,252.85 179.74,71.53 148.62,69.49 287.58,-33.4 56.38,-41.75 208.8,-138.96 227.64,-199.26 -39.73,-51.95 -493.6,-216.82 -588.48,-256.68 -180.63,-75.88 -159.71,-60.8 -296.98,39.46 -58.07,42.42 -208.91,128.91 -227.5,197.03zm2383.06 84.5c32.35,55.9 85.75,58.14 149.98,81.79 56.45,20.79 107.49,41 163.94,61.11 270.49,96.4 161.26,123.13 579.3,-188.93 60.44,-45.12 223.82,-148.51 249.84,-209.76 -46.71,-54.7 -217.5,-103.43 -306.82,-139.14 -253.75,-101.46 -162.71,-128.05 -577.88,180.19 -46.58,34.58 -82.54,61.7 -127.55,97.09 -70.5,55.43 -101.25,57.9 -130.82,117.66zm-5972.65 -1527.37c48.21,55.54 636.24,273.99 765.6,326.57 525.65,213.65 419.28,248.4 746.73,-2.92 211.18,-162.08 411.72,-312.26 622.91,-470.16l468.58 -351.27c54.8,-40.91 129.58,-74.44 143.7,-147.39 -88.02,-49.78 -259.94,-108.61 -373.22,-154.44 -126.62,-51.24 -250.76,-99.99 -378.11,-152.85 -60.88,-25.28 -330.49,-142.88 -383.33,-133.06 -32.76,6.08 -294.86,183.2 -335.23,209.96l-1210.72 798.64c-50.22,32.15 -54.46,23 -66.91,76.92z"></path>
        <path class="slide3_paysys_fil1" d="M7459.19 11362.95c574.03,-0.12 916.09,-273.38 1235.71,-523.09 367.62,-287.21 666.87,-489.45 809.3,-959.82 33.79,-111.61 113.4,-681.38 71.4,-786.83 -38.07,-95.58 -172.43,39.72 -257.26,102.85 -273.66,203.64 -1070.33,829.23 -1294.31,924.6 -467.26,198.96 -1030.6,54.02 -1452.91,-111 -520.15,-203.24 -5582.77,-2263.99 -5671.83,-2275.81 -439.97,-58.36 -599.3,1191.21 -403.88,1631.69 60.33,135.98 95.1,144.72 247.92,201.78 221.7,82.78 422.04,160.89 641.1,243.04 309.57,116.09 426.24,55.24 753.04,4.39 854.79,-132.99 627.18,-161.48 1399.3,158.63 821.96,340.77 1695,667.47 2531.53,1005.27 412.72,166.65 873.63,384.4 1390.9,384.3z"></path>
        <path class="slide3_paysys_fil1" d="M5004.25 6384.89c76.57,52.58 1562.06,651.88 1668.52,693.67l1572.42 646.5c172.08,75.87 130.06,4.32 128.66,-436.2 -2.1,-659.8 -139.3,-636.19 -686.2,-855.63l-2189.01 -897.44c-175.37,-71.06 -476.8,-226.76 -497.79,80.71 -13.13,192.45 -14.12,578.69 3.4,768.4z"></path>
        <path class="slide3_paysys_fil1" d="M3056.43 5620.44l434.9 153.91c146.59,57.98 289.47,117.87 433.24,177.31 122.09,50.47 801.43,346.97 877.61,336.38l7.39 -398.18 -833.74 -342.58c-150.31,-52.36 -310.96,-99.04 -487.83,-99.11 -156.74,-0.06 -398.04,45.04 -431.57,172.26z"></path>
        <path class="slide3_paysys_fil1" d="M8556.85 7706.85c-1.33,177.14 -4.18,145.41 146.81,202.35 207.2,78.14 427.04,157.08 622.59,261.8 10.97,5.87 61.26,35.71 62.71,36.24 195.83,72.35 -43.71,-335.12 -242.61,-499.19 -84.66,-69.83 -439.46,-259.38 -581.68,-260.74l-7.82 259.54z"></path>
    </g>
    </g>
    </g>
</svg>