<?xml version="1.0" encoding="UTF-8"?>
<!DOCTYPE svg PUBLIC "-//W3C//DTD SVG 1.1//EN" "http://www.w3.org/Graphics/SVG/1.1/DTD/svg11.dtd">
<!-- Creator: CorelDRAW -->
<svg xmlns="http://www.w3.org/2000/svg" xml:space="preserve" version="1.1" style="shape-rendering:geometricPrecision; text-rendering:geometricPrecision; image-rendering:optimizeQuality; fill-rule:evenodd; clip-rule:evenodd"
viewBox="0 0 6289.63 6951.9"
 xmlns:xlink="http://www.w3.org/1999/xlink"
 xmlns:xodm="http://www.corel.com/coreldraw/odm/2003">
 <defs>
  <style type="text/css">
   <![CDATA[
    .fil0 {fill:black}
   ]]>
  </style>
 </defs>
 <g id="Слой_x0020_1">
  <metadata id="CorelCorpID_0Corel-Layer"/>
  <g id="_2364260611872">
   <path class="fil0" d="M1653.9 1158.2c-470.46,6.91 -945.39,-0.79 -1416.45,0.27 -121.06,0.27 -207.07,15.59 -232.24,121.84 -26.12,110.25 49.75,199.17 144.92,207.58 220.94,19.5 487.04,-17.96 708.05,2.78 23.11,129.85 69.1,699.43 86.36,877.34l256.47 2646.72c29.87,293.66 58.76,585.83 85.1,880.71 13.39,149.95 30.22,296.14 40.28,446.83 16.47,246.64 178.91,465.29 405.54,558.61 147.65,60.8 265.09,50.34 435,50.34l1938.15 0c273.62,0 521.8,5.87 720.13,-251.76 161.48,-209.76 149,-481.46 177.84,-789.39 27.57,-294.42 55.89,-592.67 85.45,-887.06 59.15,-588.99 113.11,-1177.11 171.53,-1765.6l127.43 -1322.59c11.44,-125.77 20.39,-325.81 44.42,-443.26 208.97,-23.38 481.11,11.78 698.75,-2.52 98.98,-6.5 176.93,-87.99 155.39,-201.48 -20.61,-108.6 -106.03,-129.15 -225.38,-129.33 -475.02,-0.71 -950.13,-0.02 -1425.16,-0.02 -1.97,-406.71 75.36,-792.1 -284.47,-1039.54 -165.17,-113.58 -306.35,-118.66 -541.45,-118.66l-1321.07 0c-238.58,0 -372.95,0.31 -544.47,115.66 -365.45,245.77 -288.15,633.26 -290.14,1042.55zm3440.35 331.3l-3898.75 0.11c-9.09,52.8 131.2,1438.53 149.95,1608.32 59.49,538.85 94.81,1079.34 156.71,1617.89 30.53,265.66 47.07,540.17 77.98,805.91 30.93,265.84 39.75,551.61 77.91,810.98 50.1,340.51 391.31,290.55 595.8,289.72l1773.01 -0.13c202.25,-0.25 550.65,53.82 603.42,-281.46 19.99,-127.02 25.86,-275.09 38.71,-405.22l117.67 -1212.12c58.23,-537.27 92.87,-1080.69 156.58,-1616.67 8.54,-71.88 159.03,-1571.2 151.01,-1617.33zm-3108.06 -334.52l2318.05 3.39c0.52,-165.82 4.49,-336.13 -0.27,-498.57 -4.4,-149.95 -90.29,-252.83 -194.29,-299.7 -105.57,-47.57 -334.1,-30.04 -465.23,-29.59l-990.8 -0.11c-133.75,-0.14 -356.19,-17.78 -467.29,27.48 -103.83,42.3 -194.25,151.25 -199.68,293.51 -6.26,163.7 -0.02,338.52 -0.48,503.58z"/>
   <path class="fil0" d="M4089.18 2161.74c-148.15,50.1 -122.18,231.22 -128.64,401.55l-146.74 3094.06c-4.1,86.45 -19.57,166.88 23.91,232.77 29.34,44.47 106.56,88.69 187.4,61.2 145.77,-49.57 117.62,-240.37 125.16,-406.99 22.98,-507.5 56.36,-1034.89 73.34,-1537.88l73.87 -1545.07c4.38,-79.06 19.52,-175.84 -20.8,-234.77 -34.92,-51.04 -108.09,-91.72 -187.51,-64.87z"/>
   <path class="fil0" d="M2104.42 2159.83c-164.61,53.83 -114.76,245.59 -106.5,418.2l73.5 1541.33c14.08,337.98 28.84,682.21 48.79,1018.02 10.29,173.06 15.97,345.77 24.36,518.95 3.81,78.69 -2.84,175.9 36.13,230.73 33.28,46.82 103.14,92 184.66,65.09 158.8,-52.41 114.54,-229.69 105.05,-407.6 -9.07,-170.02 -13.85,-346.08 -24.17,-514.03 -21.09,-343.01 -32.33,-687.51 -49.02,-1032.04 -16.37,-337.9 -34.23,-679.13 -49.68,-1017.94 -7.8,-171 -14.87,-341.7 -23.08,-512.73 -3.58,-74.56 3.89,-180.17 -32.97,-237.2 -31.07,-48.07 -103.64,-98.05 -187.07,-70.77z"/>
   <path class="fil0" d="M3096.71 2160.75c-154.47,47.62 -116.5,230.45 -116.5,402.77l0 3094.08c0,80.74 -8.87,176.34 30.58,233.87 34.04,49.64 107.57,83.88 181.01,61.64 155.15,-46.99 117.75,-236.57 117.75,-399.8l0 -3094.08c0,-79.32 12.66,-173.9 -29.15,-235.63 -32,-47.25 -99.49,-88.81 -183.7,-62.85z"/>
  </g>
 </g>
</svg>
