<?xml version="1.0" encoding="UTF-8"?>
<!DOCTYPE svg PUBLIC "-//W3C//DTD SVG 1.1//EN" "http://www.w3.org/Graphics/SVG/1.1/DTD/svg11.dtd">
<!-- Creator: CorelDRAW -->
<svg xmlns="http://www.w3.org/2000/svg" xml:space="preserve" version="1.1" style="shape-rendering:geometricPrecision; text-rendering:geometricPrecision; image-rendering:optimizeQuality; fill-rule:evenodd; clip-rule:evenodd"
viewBox="0 0 1308.74 746.33"
 xmlns:xlink="http://www.w3.org/1999/xlink"
 xmlns:xodm="http://www.corel.com/coreldraw/odm/2003">
 <defs>
  <style type="text/css">
   <![CDATA[
    .fil0 {fill:white}
   ]]>
  </style>
 </defs>
 <g id="Слой_x0020_1">
  <metadata id="CorelCorpID_0Corel-Layer"/>
  <path class="fil0" d="M433.98 51.37c41.03,16.32 75.32,5.42 80.96,113.28 2.54,48.65 3.22,143.78 -16.74,183.28 -29.38,58.15 -94.08,-35.22 -106.92,-55.04l-102.13 -196.81c-34.1,-82.47 -41.28,-63.8 -236.54,-61.89 -31.82,0.31 -61.22,3.97 -50.28,41.3 18,61.43 133.31,269.97 170.74,329.14 77.71,122.83 164.76,237.54 296.5,301.15 67.95,32.81 188.68,49.04 258.35,36.1 34.87,-6.48 37.41,-29.76 38.54,-65.28 1.66,-52.29 28.47,-136.46 86.25,-91.85 82.94,64.03 108.92,163.65 235.89,161.11 41.59,-0.83 161.04,3.19 193.1,-7.5 95.82,-31.96 -101.03,-212.08 -115.74,-225.2 -18.1,-16.15 -33.19,-30.55 -49.5,-48.86 -17.69,-19.85 -29.19,-38.53 -12.35,-71.26 9.88,-19.2 28.39,-42.62 40.27,-57.95 37.04,-47.79 97.67,-127.9 126.99,-175.99 98.3,-161.28 -7.96,-124.75 -195.05,-123.89 -87.14,0.4 -62.06,1.43 -105.74,93.27 -24.58,51.67 -114.12,219.89 -163.03,233.92 -82.14,23.56 -14.83,-269.42 -51.26,-332.18 -21.44,-36.94 -126.67,-29.83 -171.26,-29.35 -59.18,0.63 -135.36,2.67 -151.05,50.51z"/>
 </g>
</svg>
